<svg xmlns="http://www.w3.org/2000/svg" width="24" height="24"><path style="fill: #E65100;" d="M23.873 9.81c.087-.251.127-.509.127-.764 0-.77-.38-1.514-1.055-1.981-2.153-1.492-1.868-1.117-2.679-3.543-.34-1.013-1.319-1.697-2.424-1.697h-.007c-2.653.009-2.193.151-4.334-1.354C13.055.157 12.527 0 12 0s-1.055.157-1.502.471C8.342 1.986 8.812 1.833 6.164 1.824h-.007c-1.104 0-2.084.685-2.422 1.697-.812 2.432-.534 2.056-2.678 3.544A2.414 2.414 0 0 0 0 9.048c0 .254.042.511.127.762.831 2.428.829 1.962 0 4.38a2.37 2.37 0 0 0-.127.762c0 .77.38 1.514 1.057 1.983 2.146 1.49 1.868 1.113 2.679 3.543.338 1.013 1.317 1.697 2.422 1.697h.007c2.653-.009 2.193-.152 4.334 1.353a2.62 2.62 0 0 0 3.003.001c2.141-1.504 1.679-1.362 4.334-1.353h.007c1.104 0 2.084-.685 2.424-1.697.811-2.427.525-2.052 2.679-3.543A2.42 2.42 0 0 0 24 14.953c0-.254-.04-.512-.127-.763-.831-2.428-.827-1.963 0-4.38zM12 20.5a8.5 8.5 0 1 1 .001-17.001A8.5 8.5 0 0 1 12 20.5zm-1.25-4.542L7 12.321l1.549-1.548 2.201 2.088 4.701-4.819L17 9.59l-6.25 6.368z"/></svg>