<svg xmlns="http://www.w3.org/2000/svg" viewBox="0 0 494.243 459.554">
  <defs>
    <style>
      .cls-1 {
        fill: #e65100;
      }
    </style>
  </defs>
  <g id="Group_64" data-name="Group 64" transform="translate(-399.319 -2820.273)">
    <g id="label" transform="translate(646.441 2802.927) rotate(45)">
      <g id="Group_32" data-name="Group 32" transform="translate(0 0)">
        <path id="Path_22" data-name="Path 22" d="M2.2,99.65a7.49,7.49,0,0,0,10.593,0L99.645,12.791a7.492,7.492,0,0,0-10.593-10.6L2.2,89.053A7.488,7.488,0,0,0,2.2,99.65Z" transform="translate(247.643 0)"/>
        <path id="Path_23" data-name="Path 23" d="M324.9,140.814,315.374,36.073l-26.15,26.15a31.838,31.838,0,1,1-26.49-26.483L288.891,9.583,184.146.056a13.963,13.963,0,0,0-11.125,4.03L4.084,173.024a13.939,13.939,0,0,0,0,19.714L41.661,230.32,60.2,211.778l52.973,52.973L94.639,283.29l37.578,37.578a13.93,13.93,0,0,0,19.71,0L320.876,151.931A14,14,0,0,0,324.9,140.814Z" transform="translate(0 24.53)"/>
      </g>
    </g>
    <g id="_5_" data-name="5%" transform="translate(156.78 2772.13)">
      <path id="Path_38" data-name="Path 38" class="cls-1" d="M413.263,387.8H388.22V376.53h25.043Z" transform="translate(0 -93.901)"/>
      <path id="Path_39" data-name="Path 39" class="cls-1" d="M526.939,317.232q-17.219,0-26.819-10.435l8.243-10.331a24.5,24.5,0,0,0,18.469,7.618q5.948,0,9.444-2.975a9.8,9.8,0,0,0,.155-14.87q-3.342-2.82-9.183-2.817a20.431,20.431,0,0,0-14.608,5.634l-10.331-2.713V246.38H550.1v13.044H517.129v17.009q5.845-5.845,15.34-5.845a22.209,22.209,0,0,1,15.81,6.157q6.519,6.157,6.523,16.384,0,11.061-7.618,17.583T526.939,317.232Z" transform="translate(-78.614 -2.466)"/>
      <path id="Path_40" data-name="Path 40" class="cls-1" d="M722.966,277.512q-7.826,0-12.731-4.852A16.513,16.513,0,0,1,705.33,260.4a16.965,16.965,0,0,1,17.636-17.529q7.929,0,12.835,5.009a17.185,17.185,0,0,1,4.905,12.52,16.524,16.524,0,0,1-4.905,12.261Q730.894,277.511,722.966,277.512Zm0-8.139a7.779,7.779,0,0,0,5.949-2.451,9.16,9.16,0,0,0,2.3-6.523,9.651,9.651,0,0,0-2.3-6.782,8.314,8.314,0,0,0-11.9,0,9.646,9.646,0,0,0-2.3,6.782,9.073,9.073,0,0,0,2.347,6.47A7.744,7.744,0,0,0,722.966,269.374Zm1.044,44.14h-7.826l44.453-69.6h7.93Zm50.036-3.653a17.389,17.389,0,0,1-12.782,4.905q-7.826,0-12.731-4.905a16.7,16.7,0,0,1-4.905-12.315,17.689,17.689,0,1,1,35.374,0A16.612,16.612,0,0,1,774.047,309.861Zm-18.731-5.685a7.771,7.771,0,0,0,5.949,2.451,7.95,7.95,0,0,0,6-2.451,9.181,9.181,0,0,0,2.347-6.627,9.527,9.527,0,0,0-2.347-6.782,7.866,7.866,0,0,0-6-2.5,7.7,7.7,0,0,0-5.949,2.5,9.646,9.646,0,0,0-2.3,6.782A9.3,9.3,0,0,0,755.315,304.177Z" transform="translate(-222.782)"/>
    </g>
  </g>
</svg>
