<svg xmlns="http://www.w3.org/2000/svg" viewBox="0 0 494.243 459.554"><g data-name="Group 43"><g data-name="Group 32"><path data-name="Path 22" d="M353.324 229.783a7.49 7.49 0 0 0 7.49 7.49l122.833-.005a7.493 7.493 0 0 0 .005-14.985l-122.834.007a7.488 7.488 0 0 0-7.494 7.493z"/><path data-name="Path 23" d="M359.945 329.309l67.327-80.8h-36.981a31.838 31.838 0 1 1-.005-37.457h36.991l-67.329-80.802a13.963 13.963 0 0 0-10.716-5.017H110.318a13.939 13.939 0 0 0-13.94 13.94l-.003 53.146 26.22-.002v74.915l-26.215.003v53.144a13.93 13.93 0 0 0 13.937 13.937l238.922.008a14 14 0 0 0 10.706-5.015z"/></g><text data-name="-5%" transform="translate(134.681 254.559)" fill="#e65100" font-size="100" font-family="ProximaNova-Bold,Proxima Nova" font-weight="700" letter-spacing=".105em"><tspan x="0" y="0">-5%</tspan></text></g></svg>