<svg xmlns="http://www.w3.org/2000/svg" viewBox="0 0 124.392 21.833"><defs><style>.a{fill:#e65100;}.b{fill:#fff;}</style></defs><g transform="translate(-945.447 -404.552)"><g transform="translate(945.777 368.501)"><g transform="translate(11.083 49.256) rotate(-45)"><path class="a" d="M.709,7.7a.306.306,0,0,0,.425-.011C5.668,3.054,13.253,2.8,13.329,2.8a.3.3,0,0,0,.251-.466A2,2,0,0,1,13.328.444a.305.305,0,0,0-.51-.33c-.7.878-1.941,1.12-6.064,1.924A11.165,11.165,0,0,0,.046,6.753.3.3,0,0,0,.1,7.139Z" transform="translate(0 4.424)"/><g transform="translate(9.345 0)"><path class="a" d="M9.121,1.022A.305.305,0,0,0,9.1.588L8.544.079A.3.3,0,0,0,8.166.054C8.049.134,5.377,1.989,5.185,4.1a1.881,1.881,0,0,0-.513,2.866C4.591,8.172,3.843,17.526.13,20.14a.305.305,0,0,0-.068.433l.458.61a.306.306,0,0,0,.215.121H.763a.3.3,0,0,0,.205-.08c.177-.161,4.334-3.988,4.813-8.071C6.233,9.3,6.612,7.884,7.4,7.1l.015-.016c.036-.036.069-.075.1-.114l.035-.041a1.849,1.849,0,0,0,.114-2.219A6.692,6.692,0,0,1,9.121,1.022ZM5.949,6.559a.814.814,0,1,1,.814-.814A.814.814,0,0,1,5.949,6.559Z"/><circle class="a" cx="0.203" cy="0.203" r="0.203" transform="translate(5.745 5.542)"/><path class="a" d="M4.172.849,3.714.139A.306.306,0,0,0,3.457,0h0A.307.307,0,0,0,3.2.143,4.019,4.019,0,0,1,.266,1.627.305.305,0,0,0,.04,2.08,1.793,1.793,0,0,1,.047,3.8a.305.305,0,0,0,.394.436l1.627-.813a.306.306,0,0,0,.087-.065L4.138,1.222A.3.3,0,0,0,4.172.849Z" transform="translate(8.009 2.901)"/></g></g></g><path class="b" d="M929.5,389.99c-.511-.106,2.827-12.242,2.827-12.242a3.546,3.546,0,0,1,1.235-.281,3.075,3.075,0,0,1,1.179.281l2.92,7.581,2.752-7.581a4.063,4.063,0,0,1,1.292-.281,2.648,2.648,0,0,1,1.123.281s2.968,11.323,2.912,12.053-2.912.189-2.912.189l-1.4-7.132-2.583,7.132h-2.527l-2.415-7.132L932.37,389.9A22.119,22.119,0,0,1,929.5,389.99Z" transform="translate(16 31)"/><path class="b" d="M974.232,381.008c-.034-.549,0-2.712,0-2.712s-4.7-2.2-6.66,0-1.27,3.982-1.27,3.982a4.538,4.538,0,0,0,3.227,2.712c2.334.378,3.158,1.854,1.613,2.575s-4.463-1.064-4.463-1.064v2.781s4.463,2.3,7.346-.275a3.568,3.568,0,0,0,.755-4.325c-.492-1.06-2.06-2.025-4.016-2.4s-1.618-1.628-1-2.06C971.451,379.051,974.266,381.557,974.232,381.008Z" transform="translate(16 31)"/><path class="b" d="M976.669,377.644a6.336,6.336,0,0,0-.206,1.407,3.819,3.819,0,0,0,.206,1.2H980v9.784a7.477,7.477,0,0,0,1.51.172,9.272,9.272,0,0,0,1.613-.172v-9.784h3.227a4.5,4.5,0,0,0,.172-1.2,7.511,7.511,0,0,0-.172-1.407Z" transform="translate(16 31)"/><path class="b" d="M988.444,377.644V390h8.582a4.786,4.786,0,0,0,0-2.54H991.4v-2.437h4.978a5.958,5.958,0,0,0,.206-1.373,3.889,3.889,0,0,0-.206-1.2H991.4v-2.3h5.63a6.733,6.733,0,0,0,.172-1.339,4.323,4.323,0,0,0-.172-1.167Z" transform="translate(16 31)"/><path class="b" d="M18.952,43.553H16V31.16l.021,0c.326-.032,1.49-.136,2.8-.136a14.861,14.861,0,0,1,3.065.263A4.04,4.04,0,0,1,25.2,33.631a3.645,3.645,0,0,1,.263,2.911,4.559,4.559,0,0,1-2.219,2.272L26.16,43.55l-3.329,0-2.643-4.188H18.952v4.188Zm1.17-9.941a6.582,6.582,0,0,0-1.067.087v3.124a5.9,5.9,0,0,0,.6.028c1.032,0,2.764-.222,2.764-1.71a1.3,1.3,0,0,0-.779-1.247A3.484,3.484,0,0,0,20.122,33.612Z" transform="translate(999.189 377.484)"/><path class="b" d="M929.5,389.99c-.511-.106,2.827-12.242,2.827-12.242a3.546,3.546,0,0,1,1.235-.281,3.075,3.075,0,0,1,1.179.281l2.92,7.581,2.752-7.581a4.063,4.063,0,0,1,1.292-.281,2.648,2.648,0,0,1,1.123.281s2.968,11.323,2.912,12.053-2.912.189-2.912.189l-1.4-7.132-2.583,7.132h-2.527l-2.415-7.132L932.37,389.9A22.119,22.119,0,0,1,929.5,389.99Z" transform="translate(97.153 31)"/><path class="b" d="M26.848,43.667a11.525,11.525,0,0,1-1.648-.138l-.721-2.3H19.948l-.961,2.3-.007,0a9.133,9.133,0,0,1-1.469.136A9.948,9.948,0,0,1,16,43.529l4.909-12.392.008,0A8.042,8.042,0,0,1,22.248,31a6.262,6.262,0,0,1,1.236.138L28.5,43.529a.076.076,0,0,1-.021,0A11.757,11.757,0,0,1,26.848,43.667Zm-4.6-8.479h0L20.84,38.621h2.677l-1.27-3.433Z" transform="translate(1028.298 377.506)"/><path class="b" d="M1042.648,377.643v12.392a7.142,7.142,0,0,0,1.476.172,8.9,8.9,0,0,0,1.579-.172v-7.381l5.7,7.381a5.891,5.891,0,0,0,1.27.172,4.485,4.485,0,0,0,1.167-.172V377.643a8.707,8.707,0,0,0-1.476-.137,11.663,11.663,0,0,0-1.613.137v7.072l-5.8-7.072a5.958,5.958,0,0,0-1.167-.137A5.407,5.407,0,0,0,1042.648,377.643Z" transform="translate(16 31)"/></g></svg>