<svg xmlns="http://www.w3.org/2000/svg" viewBox="0 0 512 512"><path style="fill: rgba(0, 0, 0, 0.4)" d="M504.936 7.136c-9.38-9.392-24.6-9.392-33.98 0L7.204 470.888c-9.388 9.384-9.388 24.592 0 33.976 4.692 4.696 10.844 7.044 16.992 7.044s12.3-2.348 16.988-7.044L504.936 41.112c9.388-9.384 9.388-24.592 0-33.976zM114.144.256C51.208.256 0 51.468 0 114.404s51.208 114.144 114.144 114.144c62.94 0 114.144-51.212 114.144-114.148S177.08.256 114.144.256zm0 180.228c-36.44 0-66.084-29.648-66.084-66.084 0-36.436 29.648-66.084 66.084-66.084 36.44 0 66.084 29.648 66.084 66.084 0 36.436-29.644 66.084-66.084 66.084zm283.712 103.112c-62.936 0-114.144 51.208-114.144 114.144s51.208 114.144 114.144 114.144S512 460.68 512 397.74s-51.208-114.144-114.144-114.144zm0 180.224c-36.44 0-66.084-29.648-66.084-66.084 0-36.436 29.648-66.084 66.084-66.084 36.436 0 66.084 29.648 66.084 66.084s-29.644 66.084-66.084 66.084z"/></svg>