<svg id="Group_30" data-name="Group 30" xmlns="http://www.w3.org/2000/svg" viewBox="0 0 54 50"><defs><style>.cls-1{fill:#E65100}</style></defs><g id="give-money" transform="translate(0 33.095)"><g id="Layer_5_58_"><g id="Group_16" data-name="Group 16"><g id="Group_15" data-name="Group 15"><path id="Path_16" data-name="Path 16" class="cls-1" d="M133.867 224.572a36.961 36.961 0 0 1-11.408 3.807c-3.715.57-10.705-.805-10.705-2.43 0-.616 6.13 1.517 9.839.548 2.844-.743 2.44-3.346.893-3.69s-10.547-3.572-14.395-3.684a67.92 67.92 0 0 0-8.454.962c-.742.118-1.207.105-1.253.8-.215 3.23-.64 9.834-.872 13.284 0 .073.1 1.053.925.363.9-.755 2.173-1.592 3.347-1.331 1.841.409 17.768 3.265 19.965 2.765 3.143-.715 12.039-5.876 13.745-7.48 2.643-2.486.588-5.11-1.627-3.914z" transform="translate(-82.945 -219.122)"/><path id="Path_17" data-name="Path 17" class="cls-1" d="M11.118 222.44l-8.167-.4a1.47 1.47 0 0 0-1.431 1.056l-1.486 13.48a.89.89 0 0 0 .866 1.156h9.048a1.205 1.205 0 0 0 1.235-1.1l.994-12.99a1.114 1.114 0 0 0-1.059-1.202zm-4.808 13.5a2.258 2.258 0 1 1 2.258-2.258 2.258 2.258 0 0 1-2.258 2.263z" transform="translate(0 -221.601)"/></g></g></g></g><g id="Group_29" data-name="Group 29" transform="translate(26)"><path id="ruble_1_" data-name="ruble (1)" class="cls-1" d="M70.417 6.7a3.467 3.467 0 0 0 3.731-3.348A3.467 3.467 0 0 0 70.417 0h-3.3a.657.657 0 0 0-.707.591v7.288h-.707A.657.657 0 0 0 65 8.47a.657.657 0 0 0 .707.591h.707v3.348a.718.718 0 0 0 1.413 0V9.061h2.591a.657.657 0 0 0 .707-.591.657.657 0 0 0-.707-.591h-2.592V6.7zm0-5.515h.023a2.083 2.083 0 0 1 2.211 2.167 2.088 2.088 0 0 1-2.234 2.167h-2.591V1.182z" transform="translate(-55 8)"/><g id="Ellipse_8" data-name="Ellipse 8" stroke="#E65100" stroke-width="2" fill="none"><circle cx="14" cy="14" r="14" stroke="none"/><circle cx="14" cy="14" r="13"/></g></g></svg>