<svg xmlns="http://www.w3.org/2000/svg" viewBox="0 0 102 131">
  <defs>
    <style>
      .cls-1 {
        fill: #fff;
      }

      .cls-2 {
        opacity: 0.12;
      }
    </style>
  </defs>
  <g id="Group_65" data-name="Group 65" transform="translate(0 -2772)">
    <rect id="Rectangle_144" data-name="Rectangle 144" class="cls-1" width="102" height="131" transform="translate(0 2772)"/>
    <g id="percent_1_" data-name="percent (1)" class="cls-2" transform="translate(8 2800.755)">
      <g id="Group_34" data-name="Group 34" transform="translate(0.004 0.092)">
        <g id="Group_33" data-name="Group 33" transform="translate(0 0)">
          <path id="Path_24" data-name="Path 24" d="M12.656.266a.594.594,0,0,0-.841,0L.337,11.744a.595.595,0,1,0,.841.841L12.656,1.107A.594.594,0,0,0,12.656.266Z" transform="translate(-0.163 -0.092)"/>
        </g>
      </g>
      <g id="Group_36" data-name="Group 36" transform="translate(0 0.096)">
        <g id="Group_35" data-name="Group 35" transform="translate(0 0)">
          <path id="Path_25" data-name="Path 25" d="M2.825.256A2.825,2.825,0,1,0,5.65,3.081,2.828,2.828,0,0,0,2.825.256Zm0,4.46A1.636,1.636,0,1,1,4.46,3.081,1.637,1.637,0,0,1,2.825,4.716Z" transform="translate(0 -0.256)"/>
        </g>
      </g>
      <g id="Group_38" data-name="Group 38" transform="translate(7.022 7.108)">
        <g id="Group_37" data-name="Group 37">
          <path id="Path_26" data-name="Path 26" d="M286.537,283.6a2.825,2.825,0,1,0,2.825,2.825A2.828,2.828,0,0,0,286.537,283.6Zm0,4.46a1.636,1.636,0,1,1,1.636-1.636A1.637,1.637,0,0,1,286.537,288.056Z" transform="translate(-283.712 -283.596)"/>
        </g>
      </g>
    </g>
  </g>
</svg>
