<svg xmlns="http://www.w3.org/2000/svg" width="2113.411" height="502.871"><g fill="#fffff4"><path d="M783.81 110.018h20.994V61.096H783.81V76.15c-10.696-11.884-25.352-17.63-44.17-17.63-42.385 0-72.689 30.898-72.689 73.482 0 42.98 31.888 73.481 75.066 73.481 45.158 0 72.095-26.342 72.095-69.916v-4.358h-60.408v22.778h24.757c-1.783 16.044-14.855 26.145-34.067 26.145-24.56 0-39.81-18.618-39.81-48.923 0-30.5 15.448-48.525 39.611-48.525 17.034 0 29.116 8.715 39.614 27.333zm129.336 69.52h-39.614V83.081h15.25V61.096H824.61V83.08h15.251v96.457h-15.25v22.976h110.718v-66.352h-22.183zm110.321-121.017c-44.367 0-74.868 30.7-74.868 73.482 0 42.584 30.897 73.481 73.68 73.481 42.781 0 73.679-30.105 73.679-73.481 0-43.574-30.106-73.482-72.491-73.482zm-1.189 121.413c-20.796 0-36.047-18.617-36.047-48.525 0-29.907 15.052-48.526 36.047-48.526 20.995 0 36.047 18.619 36.047 48.526 0 29.908-15.25 48.525-36.047 48.525zm131.91-.396v-40.206h8.32c17.626 0 26.738 7.724 26.738 22.183 0 13.468-7.725 18.023-24.56 18.023zm0-61.003V83.081h9.31c15.053 0 21.59 4.357 21.59 17.43 0 12.082-7.33 18.024-22.382 18.024zm12.875-57.44h-61.797v21.986h15.252v96.457h-15.252v22.976h68.73c32.284 0 48.92-13.864 48.92-39.811 0-16.637-8.912-29.115-26.144-35.453 15.252-5.348 21.59-13.864 21.59-28.522 0-25.55-17.033-37.632-51.299-37.632zm69.52 141.419zm0 0h61.005v-22.976h-15.647l7.525-26.54h41l7.725 26.54h-15.053v22.976h62.786v-22.976h-12.874l-31.493-96.457h17.034V61.096h-94.476V83.08h19.211l-31.293 96.457h-15.45zm58.231-67.936l15.449-52.29 15.25 52.29zm188.756 44.96h-39.614V83.081h15.25V61.096h-64.172V83.08h15.251v96.457h-15.25v22.976h110.718v-66.352h-22.183zM758.458 418.403h-44.565V379.78h37.038v-23.172h-37.038v-34.662h44.565v21.787h25.55v-43.772H664.97v21.985h15.25v96.457h-15.25v22.976h119.037V395.23h-25.55zm75.264-83.582l61.4 106.558h30.502V321.946h15.251V299.96H885.02v21.985h15.25l.992 69.52-52.487-91.505h-54.864v21.985h15.25v96.457h-15.25v22.976h55.854v-22.976h-15.25zm232.923 14.061h20.995v-48.921h-20.995v15.053c-10.695-11.884-25.352-17.628-44.169-17.628-42.385 0-72.688 30.898-72.688 73.482 0 42.98 31.888 73.48 75.066 73.48 45.157 0 72.094-26.341 72.094-69.916v-4.357h-60.408v22.778h24.757c-1.783 16.043-14.854 26.144-34.067 26.144-24.56 0-39.81-18.617-39.81-48.922 0-30.501 15.449-48.525 39.612-48.525 17.033 0 29.116 8.715 39.613 27.332zm89.921-26.936h15.25V299.96h-64.172v21.985h15.25v96.457h-15.25v22.976h64.173v-22.976h-15.251zm65.361 12.875l61.4 106.558h30.502V321.946h15.25V299.96h-55.854v21.985h15.251l.99 69.52-52.486-91.505h-54.864v21.985h15.25v96.457h-15.25v22.976h55.855v-22.976h-15.251zm207.571 83.582h-44.565V379.78h37.038v-23.172h-37.038v-34.662h44.565v21.787h25.55v-43.772H1336.01v21.985h15.25v96.457h-15.25v22.976h119.037V395.23h-25.55zm128.742 0h-44.565V379.78h37.038v-23.172h-37.038v-34.662h44.565v21.787h25.55v-43.772h-119.037v21.985h15.25v96.457h-15.25v22.976h119.037V395.23h-25.55zm84.177-96.457h10.1c17.629 0 25.749 4.357 25.749 17.231 0 13.073-8.12 17.43-25.748 17.43h-10.101zm0 57.043h15.448l32.087 62.39h39.613v-22.976h-16.043l-22.976-45.158c15.845-3.764 23.967-15.449 23.967-33.671 0-28.72-16.836-39.613-53.874-39.613h-67.145v21.985h15.251v96.457h-15.25v22.976h64.172v-22.976h-15.25zm142.407-57.043h15.25V299.96h-64.172v21.985h15.25v96.457h-15.25v22.976h64.173v-22.976h-15.251zm65.361 12.875l61.4 106.558h30.503V321.946h15.25V299.96h-55.855v21.985h15.251l.99 69.52-52.486-91.505h-54.864v21.985h15.25v96.457h-15.25v22.976h55.854v-22.976h-15.25zm232.923 14.061h20.995v-48.921h-20.995v15.053c-10.695-11.884-25.352-17.628-44.168-17.628-42.386 0-72.69 30.898-72.69 73.482 0 42.98 31.889 73.48 75.067 73.48 45.158 0 72.094-26.341 72.094-69.916v-4.357h-60.408v22.778h24.757c-1.783 16.043-14.854 26.144-34.067 26.144-24.56 0-39.81-18.617-39.81-48.922 0-30.501 15.449-48.525 39.612-48.525 17.034 0 29.116 8.715 39.613 27.332z" fill-rule="evenodd"/><path d="M.001 502.66L297.241.002 328.246 53.7zm0 0l363.73-387.49 29.721 51.473zm0 0l429.847-272.971 28.506 49.371zm0 0l494.987-160.148 28.146 48.747zm0 0l559.993-47.554 27.578 47.765z"/></g></svg>