<svg xmlns="http://www.w3.org/2000/svg" xmlns:xlink="http://www.w3.org/1999/xlink" viewBox="0 0 45.8 10.9"><defs><style>.a{fill:none;clip-rule:evenodd}</style><clipPath id="a"><path class="a" d="M0 10.89L6.44 0l.67 1.16L0 10.89z"/></clipPath><linearGradient id="b" x1=".12" y1="8.15" x2="7" y2="2.74" gradientUnits="userSpaceOnUse"><stop offset="0" stop-color="#bc2522"/><stop offset="1" stop-color="#d34623"/></linearGradient><clipPath id="c"><path class="a" d="M0 10.89L7.88 2.5l.65 1.11L0 10.89z"/></clipPath><linearGradient id="d" x1=".45" y1="8.58" x2="8.08" y2="4.82" xlink:href="#b"/><clipPath id="e"><path class="a" d="M0 10.89l9.32-5.91.61 1.07L0 10.89z"/></clipPath><linearGradient id="f" x1="2.07" y1="10.83" x2="7.87" y2="5.05" gradientUnits="userSpaceOnUse"><stop offset="0" stop-color="#c02b23"/><stop offset="1" stop-color="#d34623"/></linearGradient><clipPath id="g"><path class="a" d="M0 10.89l10.73-3.47.61 1.06L0 10.89z"/></clipPath><linearGradient id="h" x1=".56" y1="10.89" x2="10.79" y2="7.43" gradientUnits="userSpaceOnUse"><stop offset="0" stop-color="#be2723"/><stop offset="1" stop-color="#d34623"/></linearGradient><clipPath id="i"><path class="a" d="M0 10.89l12.14-1.03.59 1.04L0 10.89z"/></clipPath><linearGradient id="j" y1="10.38" x2="12.73" y2="10.38" gradientUnits="userSpaceOnUse"><stop offset="0" stop-color="#bf2a23"/><stop offset="1" stop-color="#d34623"/></linearGradient></defs><path d="M32.15 3.89h-.86V1.8h.33v-.48h-1.39v.48h.33v2.09h-.33v.5h2.4V3h-.48zm-4.09-1l.33-1.13.33 1.13zm-1.26 1.5h1.32v-.5h-.34l.16-.58h.89l.17.58h-.33v.5H30v-.5h-.28l-.65-2.09h.37v-.48h-2v.48h.42l-.68 2.09h-.38zm-1.51-3.07H24v.48h.33v2.09H24v.5h1.49c.7 0 1.06-.3 1.06-.86a.78.78 0 0 0-.57-.77.59.59 0 0 0 .47-.62c0-.55-.37-.82-1.11-.82M25 2.57V1.8h.2c.33 0 .47.09.47.38s-.16.39-.49.39zm0 1.32V3h.18c.38 0 .58.17.58.48s-.17.39-.53.39zm-2.86 0c-.45 0-.78-.4-.78-1.05s.33-1.05.78-1.05.78.4.78 1.05-.33 1.05-.78 1.05m0-2.63a1.54 1.54 0 0 0-1.62 1.59 1.6 1.6 0 0 0 3.19 0 1.51 1.51 0 0 0-1.53-1.58zm-2.35 2.63h-.86V1.8h.33v-.48h-1.39v.48h.33v2.09h-.33v.5h2.4V3h-.48zM17 2.38h.45V1.32H17v.33a1.22 1.22 0 0 0-1-.38 1.53 1.53 0 0 0-1.58 1.59 1.56 1.56 0 0 0 1.63 1.59 1.42 1.42 0 0 0 1.56-1.52v-.09h-1.28v.49h.54a.66.66 0 0 1-.74.57c-.53 0-.86-.4-.86-1.06s.33-1.05.86-1.05a1 1 0 0 1 .86.59m28.16 5.18h.45V6.5h-.45v.33a1.22 1.22 0 0 0-1-.38A1.53 1.53 0 0 0 42.61 8a1.56 1.56 0 0 0 1.63 1.59 1.42 1.42 0 0 0 1.56-1.48V8h-1.31v.49H45a.66.66 0 0 1-.74.57c-.53 0-.86-.4-.86-1.06s.36-1 .89-1a1 1 0 0 1 .86.59m-5-.3l1.33 2.31h.66V7h.33v-.5h-1.26V7h.33v1.51l-1.14-2h-1.16V7h.33v2.07h-.33v.5h1.21v-.5h-.33zM38.68 7H39v-.5h-1.38V7H38v2.07h-.33v.5H39v-.5h-.33zM35.6 8.21h.33l.7 1.35h.86v-.5h-.35l-.5-1a.66.66 0 0 0 .52-.73c0-.62-.36-.86-1.17-.86h-1.45V7h.33v2.07h-.33v.5h1.39v-.5h-.33zm0-1.21h.22c.38 0 .56.09.56.37s-.18.38-.56.38h-.22zm-1.83 2.07h-1v-.84h.8v-.5h-.8V7h1v.47h.55V6.5h-2.57V7h.33v2.07h-.33v.5h2.58v-1h-.55zm-2.77 0h-1v-.84h.8v-.5H30V7h1v.47h.55V6.5H29V7h.33v2.07H29v.5h2.58v-1H31zm-4.5-1.81l1.33 2.31h.66V7h.33v-.5h-1.23V7h.33v1.51l-1.14-2h-1.16V7H26v2.07h-.33v.5h1.21v-.5h-.38zM25.07 7h.33v-.5H24V7h.33v2.07H24v.5h1.4v-.5h-.33zm-1.95.58h.45V6.5h-.45v.33a1.22 1.22 0 0 0-1-.38A1.53 1.53 0 0 0 20.58 8a1.56 1.56 0 0 0 1.63 1.59 1.42 1.42 0 0 0 1.56-1.52V8h-1.31v.49H23a.66.66 0 0 1-.74.57c-.53 0-.86-.4-.86-1.06s.33-1 .86-1a1 1 0 0 1 .86.59m-5-.3l1.28 2.28h.66V7h.33v-.5h-1.21V7h.33v1.51l-1.14-2h-1.16V7h.33v2.07h-.33v.5h1.21v-.5h-.33zm-1.68 1.78h-1v-.84h.8v-.5h-.8V7h1v.47H17V6.5h-2.59V7h.33v2.07h-.33v.5H17v-1h-.55z" fill="#2b2a29"/><g clip-path="url(#a)"><path fill="url(#b)" d="M0 0h7.11v10.89H0z"/></g><g clip-path="url(#c)"><path fill="url(#d)" d="M0 2.5h8.53v8.4H0z"/></g><g clip-path="url(#e)"><path fill="url(#f)" d="M0 4.98h9.93v5.92H0z"/></g><g clip-path="url(#g)"><path fill="url(#h)" d="M0 7.42h11.34v3.47H0z"/></g><g clip-path="url(#i)"><path fill="url(#j)" d="M0 9.86h12.73v1.04H0z"/></g></svg>