<?xml version="1.0" encoding="UTF-8"?>
<svg width="16px" height="16px" viewBox="0 0 16 16" version="1.1" xmlns="http://www.w3.org/2000/svg" xmlns:xlink="http://www.w3.org/1999/xlink">
    <!-- Generator: Sketch 49.2 (51160) - http://www.bohemiancoding.com/sketch -->
    <title>check</title>
    <desc>Created with Sketch.</desc>
    <defs></defs>
    <g id="Page-1" stroke="none" stroke-width="1" fill="none" fill-rule="evenodd">
        <g id="1440" transform="translate(-173.000000, -1079.000000)" fill="#ACADBE" fill-rule="nonzero">
            <g id="Group-4" transform="translate(171.000000, 810.000000)">
                <g id="list" transform="translate(2.000000, 262.000000)">
                    <path d="M2.32619424,20.0995276 C0.345572639,18.1865792 -0.448758887,15.3537912 0.248501613,12.689948 C0.945762113,10.0261047 3.02610467,7.94576211 5.68994796,7.24850161 C8.35379125,6.55124111 11.1865792,7.34557264 13.0995276,9.32619424 C15.9869349,12.3157477 15.9456409,17.0677925 13.0067167,20.0067167 C10.0677925,22.9456409 5.31574766,22.9869349 2.32619424,20.0995276 Z M12.0252419,19.0252419 C14.4069041,16.6435796 14.4069041,12.7821422 12.0252419,10.4004799 C9.64357962,8.01881771 5.78214218,8.01881771 3.40047995,10.4004799 C1.01881771,12.7821422 1.01881771,16.6435796 3.40047995,19.0252419 C5.78214218,21.4069041 9.64357962,21.4069041 12.0252419,19.0252419 Z M5.19857519,14.1719085 L6.95095614,15.9319085 L10.2271466,12.655718 L11.2938133,13.7376228 L6.95095614,18.0652419 L4.13190852,15.2461942 L5.19857519,14.1642895 L5.19857519,14.1719085 Z" id="check"></path>
                </g>
            </g>
        </g>
    </g>
</svg>