<?xml version="1.0" encoding="UTF-8"?>
<svg width="60px" height="60px" viewBox="0 0 60 60" version="1.1" xmlns="http://www.w3.org/2000/svg" xmlns:xlink="http://www.w3.org/1999/xlink">
    <!-- Generator: Sketch 49.2 (51160) - http://www.bohemiancoding.com/sketch -->
    <title>icon-benefit-quote</title>
    <desc>Created with Sketch.</desc>
    <defs></defs>
    <g id="Page-1" stroke="none" stroke-width="1" fill="none" fill-rule="evenodd">
        <g id="1440-copy" transform="translate(-240.000000, -1652.000000)">
            <g id="02-Benefits" transform="translate(0.000000, 1364.000000)">
                <g id="benefits" transform="translate(240.000000, 287.000000)">
                    <g id="benefit-01">
                        <g id="icon-benefit-quote" transform="translate(0.000000, 1.000000)">
                            <rect id="Rectangle" fill="#77C12A" x="0" y="0" width="60" height="60" rx="20"></rect>
                            <path d="M30,45 C21.7157288,45 15,38.2842712 15,30 C15,21.7157288 21.7157288,15 30,15 C38.2842712,15 45,21.7157288 45,30 C45,38.2842712 38.2842712,45 30,45 Z M30,42 C36.627417,42 42,36.627417 42,30 C42,23.372583 36.627417,18 30,18 C23.372583,18 18,23.372583 18,30 C18,36.627417 23.372583,42 30,42 Z M29,30.36621 L29,21 L32.0252101,21 L32.0252101,29.1680365 L38,34.939726 L35.8672269,37 L29,30.36621 Z" id="Shape" fill="#FFFFFF" fill-rule="nonzero"></path>
                        </g>
                    </g>
                </g>
            </g>
        </g>
    </g>
</svg>