<?xml version="1.0" encoding="UTF-8"?>
<svg width="60px" height="60px" viewBox="0 0 60 60" version="1.1" xmlns="http://www.w3.org/2000/svg" xmlns:xlink="http://www.w3.org/1999/xlink">
    <!-- Generator: Sketch 49.2 (51160) - http://www.bohemiancoding.com/sketch -->
    <title>icon-web</title>
    <desc>Created with Sketch.</desc>
    <defs></defs>
    <g id="Page-1" stroke="none" stroke-width="1" fill="none" fill-rule="evenodd">
        <g id="1440-copy" transform="translate(-242.000000, -817.000000)">
            <g id="01-Services" transform="translate(241.000000, 817.000000)">
                <g id="to-HTML">
                    <g id="icon-web" transform="translate(1.000000, 0.000000)">
                        <rect id="Rectangle" fill="#5C4EFE" x="0" y="0" width="60" height="60" rx="20"></rect>
                        <path d="M25.8,40.0507324 L18.8,40.0507324 C17.2536027,40.0507324 16,38.7971297 16,37.2507324 L16,18.8 C16,17.26 17.26,16 18.8,16 L41.2,16 C42.7463973,16 44,17.2536027 44,18.8 L44,37.2507324 C44,38.7971297 42.7463973,40.0507324 41.2,40.0507324 L34.2,40.0507324 L39.8,42.6 L39.8,44 L20.2,44 L20.2,42.6 L25.8,40.0507324 Z M19,19 L19,34.9873047 L41,34.9873047 L41,19 L19,19 Z" id="Shape" fill="#FFFFFF" fill-rule="nonzero"></path>
                    </g>
                </g>
            </g>
        </g>
    </g>
</svg>