<?xml version="1.0" encoding="UTF-8"?>
<svg width="60px" height="60px" viewBox="0 0 60 60" version="1.1" xmlns="http://www.w3.org/2000/svg" xmlns:xlink="http://www.w3.org/1999/xlink">
    <!-- Generator: Sketch 49.2 (51160) - http://www.bohemiancoding.com/sketch -->
    <title>icon-benefit-details</title>
    <desc>Created with Sketch.</desc>
    <defs></defs>
    <g id="Page-1" stroke="none" stroke-width="1" fill="none" fill-rule="evenodd">
        <g id="1440-copy" transform="translate(-240.000000, -1958.000000)">
            <g id="02-Benefits" transform="translate(0.000000, 1364.000000)">
                <g id="benefits" transform="translate(240.000000, 287.000000)">
                    <g id="benefit-03" transform="translate(0.000000, 307.000000)">
                        <g id="icon-benefit-details">
                            <rect id="Rectangle" fill="#52BDE8" x="0" y="0" width="60" height="60" rx="20"></rect>
                            <path d="M13,30.4151048 C16.2582824,24.0237563 22.8260373,20 30,20 C37.1739627,20 43.7417176,24.0237563 47,30.4151048 C43.7417176,36.8064534 37.1739627,40.8302096 30,40.8302096 C22.8260373,40.8302096 16.2582824,36.8064534 13,30.4151048 Z M30,37.3538803 C33.8321799,37.3538803 36.9387755,34.2472847 36.9387755,30.4151048 C36.9387755,26.5829249 33.8321799,23.4763293 30,23.4763293 C26.1678201,23.4763293 23.0612245,26.5829249 23.0612245,30.4151048 C23.0612245,34.2472847 26.1678201,37.3538803 30,37.3538803 Z M30,33.8844926 C28.0839101,33.8844926 26.5306122,32.3311948 26.5306122,30.4151048 C26.5306122,28.4990149 28.0839101,26.9457171 30,26.9457171 C31.9160899,26.9457171 33.4693878,28.4990149 33.4693878,30.4151048 C33.4693878,32.3311948 31.9160899,33.8844926 30,33.8844926 Z" id="Shape" fill="#FFFFFF" fill-rule="nonzero"></path>
                        </g>
                    </g>
                </g>
            </g>
        </g>
    </g>
</svg>