<?xml version="1.0" encoding="UTF-8"?>
<svg width="60px" height="60px" viewBox="0 0 60 60" version="1.1" xmlns="http://www.w3.org/2000/svg" xmlns:xlink="http://www.w3.org/1999/xlink">
    <!-- Generator: Sketch 49.2 (51160) - http://www.bohemiancoding.com/sketch -->
    <title>nda</title>
    <desc>Created with Sketch.</desc>
    <defs></defs>
    <g id="Page-1" stroke="none" stroke-width="1" fill="none" fill-rule="evenodd">
        <g id="1440-copy" transform="translate(-240.000000, -3137.000000)">
            <g id="nda" transform="translate(240.000000, 3137.000000)">
                <rect id="Rectangle" fill="#D91E61" x="0" y="0" width="60" height="60" rx="20"></rect>
                <path d="M22.9814459,25.0321281 L22.9814459,22.813235 C22.9814459,18.5085466 25.7412011,15 30,15 C34.2587989,15 36.9895308,18.5085466 36.9895308,22.813235 L36.9895308,25.0321281 L38.2747371,25.0321281 C39.6943367,25.0321281 41,26.0426177 41,27.4775138 L41,38.4018907 C41,39.8367869 39.8491871,41 38.4295875,41 L21.5704125,41 C20.1508129,41 19,39.8367869 19,38.4018907 L19,27.4775138 C19,26.0485537 20.1566856,25.0321281 21.5704125,25.0321281 L22.9814459,25.0321281 Z M28.9983987,33.7269252 L28.9983987,36 L30.9993456,36 L30.9993456,33.7269252 C31.7836528,33.2737065 32.1660353,32.3497404 31.9316385,31.474189 C31.6972416,30.5986377 30.9045121,29.9898192 29.9988721,29.9898192 C29.0932322,29.9898192 28.3005027,30.5986377 28.0661058,31.474189 C27.8317089,32.3497404 28.2140915,33.2737065 28.9983987,33.7269252 Z M25.9982456,22.2136713 L25.9982456,25.0116352 L33.9962405,25.0116352 L33.9962405,22.2136713 C33.9962405,19.8957622 32.2058283,18.0167255 29.997243,18.0167255 C27.7886577,18.0167255 25.9982456,19.8957622 25.9982456,22.2136713 Z" id="Shape" fill="#FFFFFF" fill-rule="nonzero"></path>
            </g>
        </g>
    </g>
</svg>