<?xml version="1.0" encoding="UTF-8"?>
<svg width="60px" height="60px" viewBox="0 0 60 60" version="1.1" xmlns="http://www.w3.org/2000/svg" xmlns:xlink="http://www.w3.org/1999/xlink">
    <!-- Generator: Sketch 49.2 (51160) - http://www.bohemiancoding.com/sketch -->
    <title>icon-email</title>
    <desc>Created with Sketch.</desc>
    <defs></defs>
    <g id="Page-1" stroke="none" stroke-width="1" fill="none" fill-rule="evenodd">
        <g id="1440-copy" transform="translate(-937.000000, -810.000000)">
            <g id="Group-6" transform="translate(937.000000, 810.000000)">
                <g id="Group-Copy">
                    <g id="icon-email">
                        <rect id="Rectangle" fill="#F4B61E" x="0" y="0" width="60" height="60" rx="20"></rect>
                        <path d="M36.0800576,35.8635405 C33.8927312,38.1555866 30.5286265,38.8818873 27.5904313,37.6964268 C24.6522362,36.5109662 22.7342172,33.6535105 22.750135,30.4853758 C22.750135,27.5500754 24.4086438,24.8667036 27.0342047,23.5539973 C29.6597657,22.2412911 32.8016899,22.5245822 35.150063,24.2857624 L35.150063,22.7358591 L38.250045,22.7358591 L38.250045,32.8102309 C38.250045,34.0942128 39.2909769,35.1350859 40.5750315,35.1350859 C41.8590861,35.1350859 42.900018,34.0942128 42.900018,32.8102309 L42.900018,30.4853758 C42.8960497,24.9428681 39.214006,20.0761656 33.8812189,18.564873 C28.5484319,17.0535803 22.860301,19.264809 19.9487093,23.9810575 C17.0371175,28.6973059 17.6093263,34.7729392 21.3502777,38.8627158 C25.0912291,42.9524924 31.0921999,44.0629552 36.0490578,41.5826838 L37.4440497,44.3570108 C31.2493148,47.4610114 23.7468205,46.076733 19.0678692,40.9664385 C14.3889179,35.856144 13.6702373,28.2613537 17.3075741,22.3641937 C20.9449109,16.4670337 28.0545924,13.7001892 34.7216212,15.5872432 C41.3886501,17.4742971 45.9933052,23.5567992 46,30.4853758 L45.7210016,30.4853758 L45.9845001,30.4853758 L45.9845001,32.8102309 C45.9916152,35.1974278 44.4372262,37.3087064 42.1555314,38.0110009 C39.8738367,38.7132953 37.4011753,37.841523 36.0645577,35.8635405 L36.0800576,35.8635405 Z M30.5,35 C32.9852814,35 35,32.9852814 35,30.5 C35,28.0147186 32.9852814,26 30.5,26 C28.0147186,26.0000001 26,28.0147187 26,30.5 C26,32.9852813 28.0147186,34.9999999 30.5,35 Z" id="Shape" fill="#FFFFFF" fill-rule="nonzero"></path>
                    </g>
                </g>
            </g>
        </g>
    </g>
</svg>