<?xml version="1.0" encoding="UTF-8"?>
<svg width="60px" height="60px" viewBox="0 0 60 60" version="1.1" xmlns="http://www.w3.org/2000/svg" xmlns:xlink="http://www.w3.org/1999/xlink">
    <!-- Generator: Sketch 49.2 (51160) - http://www.bohemiancoding.com/sketch -->
    <title>icon-benefit-budget</title>
    <desc>Created with Sketch.</desc>
    <defs></defs>
    <g id="Page-1" stroke="none" stroke-width="1" fill="none" fill-rule="evenodd">
        <g id="1440-copy" transform="translate(-240.000000, -1805.000000)">
            <g id="02-Benefits" transform="translate(0.000000, 1364.000000)">
                <g id="benefits" transform="translate(240.000000, 287.000000)">
                    <g id="benefit-02" transform="translate(0.000000, 154.000000)">
                        <g id="icon-benefit-budget">
                            <rect id="Rectangle" fill="#FB8331" x="0" y="0" width="60" height="60" rx="20"></rect>
                            <path d="M30,45 C21.7157288,45 15,38.2842712 15,30 C15,21.7157288 21.7157288,15 30,15 C38.2842712,15 45,21.7157288 45,30 C45,38.2842712 38.2842712,45 30,45 Z M32.0079956,38.0076904 L33,38.0076904 C35.4852814,38.0076904 36.9882812,36.1653755 36.9882812,33.6011963 C36.9882812,31.0370171 35.4852814,29.0341797 33,29.0341797 L26.985,29.0341797 C26.1565729,29.0341797 25.6762695,28.3794456 25.6762695,27.5247192 C25.6762695,26.6699928 26.1565729,26.0129395 26.985,26.0129395 L36,26.0129395 L36,23.0233154 L32.0079956,23.0233154 L32.0079956,20 L29.0197754,20 L29.0197754,23.0233154 L27,23.0233154 C24.5147186,23.0233154 23.0032959,25.1159966 23.0032959,27.6801758 C23.0032959,30.244355 24.5147186,32.0290527 27,32.0290527 L33,32.0290527 C33.5522847,32.0290527 33.9887268,32.5256755 34.3093262,33.5189209 C33.9887268,34.5532633 33.5522847,35.0704346 33,35.0704346 L24,35.0704346 L24,38.0076904 L29.0197754,38.0076904 L29.0197754,40.9821777 L32.0079956,40.9821777 L32.0079956,38.0076904 Z" id="Shape" fill="#FFFFFF" fill-rule="nonzero"></path>
                        </g>
                    </g>
                </g>
            </g>
        </g>
    </g>
</svg>