<?xml version="1.0" encoding="UTF-8"?>
<svg width="60px" height="60px" viewBox="0 0 60 60" version="1.1" xmlns="http://www.w3.org/2000/svg" xmlns:xlink="http://www.w3.org/1999/xlink">
    <!-- Generator: Sketch 49.2 (51160) - http://www.bohemiancoding.com/sketch -->
    <title>icon-team1</title>
    <desc>Created with Sketch.</desc>
    <defs></defs>
    <g id="Page-1" stroke="none" stroke-width="1" fill="none" fill-rule="evenodd">
        <g id="1440-copy" transform="translate(-678.000000, -2532.000000)">
            <g id="Group-13" transform="translate(678.000000, 2532.000000)">
                <g id="Group-8-Copy">
                    <g id="icon-team1">
                        <rect id="Rectangle" fill="#FB8331" x="0" y="0" width="60" height="60" rx="20"></rect>
                        <path d="M31.0185547,28.1776471 L31.0185547,14 L41,30.8235294 L34.7142857,40 L25.2857143,40 L19,30.8235294 L29.0021973,14 L29.0021973,28.1776471 C26.9642331,28.5462646 26.5960695,30.2810805 26.9642331,31.6183477 C27.3323967,32.9556149 28.577525,33.8854895 30,33.8854895 C31.422475,33.8854895 32.6676033,32.9556149 33.0357669,31.6183477 C33.4039305,30.2810805 33.0357669,28.4294434 31.0185547,28.1776471 Z M23,42 L36,42 L36,45 L23,45 L23,42 Z" id="Shape" fill="#FFFFFF" fill-rule="nonzero"></path>
                    </g>
                </g>
            </g>
        </g>
    </g>
</svg>