<?xml version="1.0" encoding="UTF-8"?>
<svg width="60px" height="60px" viewBox="0 0 60 60" version="1.1" xmlns="http://www.w3.org/2000/svg" xmlns:xlink="http://www.w3.org/1999/xlink">
    <!-- Generator: Sketch 49.2 (51160) - http://www.bohemiancoding.com/sketch -->
    <title>icon-wordpress</title>
    <desc>Created with Sketch.</desc>
    <defs></defs>
    <g id="Page-1" stroke="none" stroke-width="1" fill="none" fill-rule="evenodd">
        <g id="1440-copy" transform="translate(-589.000000, -817.000000)">
            <g id="01-Services" transform="translate(241.000000, 817.000000)">
                <g id="to-Wordpress" transform="translate(348.000000, 0.000000)">
                    <g id="icon-wordpress">
                        <rect id="Rectangle" fill="#EE2553" x="0" y="0" width="60" height="60" rx="20"></rect>
                        <path d="M30.4954693,17.9783742 C33.6345408,17.9783742 36.4927149,19.1563524 38.6352077,21.0849999 C37.5850936,21.0574077 36.537147,21.6686828 36.4937987,23.0684606 C36.4054764,25.8982615 39.9492048,26.5010467 38.0397096,32.1930164 L36.4602037,36.901215 L32.1584208,24.4921163 C32.0917726,24.3000315 32.1692578,24.1907236 32.4103831,24.1907236 L33.6265755,24.1907236 C33.6897829,24.1907236 33.7414541,24.1378738 33.7414541,24.0731487 L33.7414541,23.3677414 C33.7414541,23.3030428 33.6896528,23.2475186 33.6265755,23.2501929 C31.323423,23.3488194 29.0338167,23.349488 26.7580278,23.2501929 C26.6946308,23.2475398 26.6431547,23.303255 26.6431547,23.3679907 L26.6431547,24.0733981 C26.6431547,24.1380542 26.6948476,24.190973 26.7580332,24.190973 L27.9808905,24.190973 C28.2529069,24.190973 28.3290645,24.2797353 28.393193,24.4514389 L30.1607224,29.1851073 L27.5018423,37.0473161 L23.1312439,24.4408265 C23.0770584,24.2827015 23.1426228,24.1909041 23.2981351,24.1909041 L24.6915139,24.1909041 C24.7546996,24.1909041 24.8063708,24.1380542 24.8063708,24.0733291 L24.8063708,23.3679218 C24.8063708,23.3032232 24.7545154,23.2471312 24.6915139,23.2503733 C23.2295905,23.3264166 21.7620859,23.3417091 20.3950954,23.3554522 C22.5402432,20.1195141 26.262296,17.9781407 30.4947215,17.9781407 L30.4947058,17.9781078 L30.4954693,17.9783742 Z M39.7779876,24.6108759 C40.6355481,26.2585291 41.1224957,28.1463002 41.1224957,30.1521388 C41.1224957,34.5543877 38.7769559,38.3859504 35.3188236,40.3637002 L38.7993183,30.0834888 C39.3385286,28.492485 39.8390445,26.3423241 39.7777363,24.6108759 L39.7777162,24.6108759 L39.7779876,24.6108759 Z M33.6606316,41.3519539 C32.411975,41.7854742 31.0682595,42.0218922 29.6676159,42.0218922 C28.4608498,42.0218922 27.2965111,41.8462824 26.1987675,41.5212732 L29.8730401,31.243644 L33.6605779,41.3524781 L33.6605779,41.3524776 L33.6606316,41.3519539 Z M24.5402988,41.192581 C20.619742,39.2766912 17.9078073,35.1609464 17.9078073,30.3939487 C17.9078073,28.6267922 18.2808817,26.9492522 18.9495339,25.4399719 L24.5405754,41.1927962 L24.5402988,41.192581 Z M30,15.9848485 C37.7388838,15.9848485 44.0151515,22.2611162 44.0151515,30 C44.0151515,37.7388838 37.7388838,44.0151515 30,44.0151515 C22.2611162,44.0151515 15.9848485,37.7388838 15.9848485,30 C15.9848485,22.2611162 22.2611162,15.9848485 30,15.9848485 Z M30,14 C38.8347853,14 46,21.1652147 46,30 C46,38.8347853 38.8347853,46 30,46 C21.1652147,46 14,38.8347853 14,30 C14,21.1652147 21.1652147,14 30,14 Z" id="Shape" fill="#FFFFFF"></path>
                    </g>
                </g>
            </g>
        </g>
    </g>
</svg>