<svg xmlns="http://www.w3.org/2000/svg" viewBox="0 0 33.58 33.58"><defs><style>.a{fill:#e31e24;}.a,.b{fill-rule:evenodd;}.b{fill:#fefefe;}</style></defs><title>advantages-3</title><path class="a" d="M1.14,14,14,1.14a3.92,3.92,0,0,1,5.52,0L32.44,14a3.92,3.92,0,0,1,0,5.52L19.55,32.44a3.92,3.92,0,0,1-5.52,0L1.14,19.55a3.92,3.92,0,0,1,0-5.52"/><path class="b" d="M13.68,18.22c-.13,0-.24-.26-.68-.26H11.38a.88.88,0,0,0-.81.94v5a.93.93,0,0,0,.2.64.79.79,0,0,0,.57.3H13.1c.24,0,.29-.12.45-.16a1.81,1.81,0,0,0,1,.45H19.9a2,2,0,0,0,1.28-.53,2.83,2.83,0,0,0,.62-1.75L22.09,21c.05-.31.1-.58.15-.89.1-.75.36-1.47-.46-2.23a2,2,0,0,0-1.45-.46h-2V15.66a1.82,1.82,0,0,0-1-1.78,2.28,2.28,0,0,0-1.56,0c-.23.1-.26.32-.26.65,0,.61,0,1.24,0,1.85a2,2,0,0,1-1.13,1.59,2.62,2.62,0,0,1-.29.16l-.36.13m-2.23.58H13v5.15H11.45Z"/><path class="b" d="M14.59,13.52c.4,0,.45-.22.45-.49s-1.06-1.2-1.27-1.42l-.68-.68c-.17-.17-.5-.59-.77-.59a.4.4,0,0,0-.44.34c0,.27.12.39.25.52l2,2c.12.12.27.33.48.33"/><path class="b" d="M18.54,13c0,.27.05.49.45.49.23,0,.68-.53.85-.7l1.59-1.59c.13-.13.29-.24.28-.49s-.4-.62-.86-.16l-1.7,1.7c-.14.14-.61.53-.61.75"/><path class="b" d="M16.37,8.86v3.4c0,.49.84.49.84,0V8.86a.37.37,0,0,0-.39-.36h-.07a.37.37,0,0,0-.39.36"/><path class="b" d="M19.42,15.27a.45.45,0,0,0,.45.42h3.3c.51,0,.52-.84,0-.84H19.74a.46.46,0,0,0-.32.42"/><path class="b" d="M10,15.2c0,.28.14.49.39.49h3.3a.42.42,0,0,0,.36-.68c0-.05-.15-.16-.23-.16H10.38a.39.39,0,0,0-.36.36"/></svg>