<svg xmlns="http://www.w3.org/2000/svg" viewBox="0 0 33.58 33.58"><defs><style>.a{fill:#e31e24;}.a,.b{fill-rule:evenodd;}.b{fill:#fefefe;}</style></defs><title>advantages-2</title><path class="a" d="M1.14,14,14,1.14a3.92,3.92,0,0,1,5.52,0L32.44,14a3.92,3.92,0,0,1,0,5.52L19.55,32.44a3.92,3.92,0,0,1-5.52,0L1.14,19.55a3.92,3.92,0,0,1,0-5.52"/><path class="b" d="M11.28,16.52a5,5,0,0,0,.17,1.69A5.56,5.56,0,0,0,13.23,21a5.21,5.21,0,0,0,1.65,1,5.52,5.52,0,0,0,6.89-2.81,5.62,5.62,0,0,0,.11-4.5A5.55,5.55,0,0,0,19.59,12a5.58,5.58,0,0,0-5.17-.23l-.2.11-.62.38c-.13.09-.23.19-.37.29A5.86,5.86,0,0,0,12,14a5.22,5.22,0,0,0-.75,2.52M14,17.2c0-.26.48-.55.79-.8.51-.41.57-.19,1,.44l.25.37c.24.35.35.54.65,0l.26-.46c.16-.3,1.41-2.54,1.62-2.72.24.06.24.19.35.38a10.83,10.83,0,0,1,.79,1.48c0,.25-.13.34-.24.48l-.7.75c-.31.31-.76.85-1,1.15l-1.07,1.14a.34.34,0,0,1-.48.08L14.3,17.63C14.21,17.52,14,17.35,14,17.2Z"/><path class="b" d="M8.53,16.83c0,.52.39.94.62,1.41.54,1.09.12,2,.46,2.64.47.82.93.48,2,1.62a1.72,1.72,0,0,1,.22.3l.38.66a1.33,1.33,0,0,0,.52.51c.7.39,1.25-.11,2.63.46.72.3,1.2,1,2.32.36a3.64,3.64,0,0,1,2.4-.67,1.32,1.32,0,0,0,.85-.15c.71-.35.64-1,1.36-1.7a2.58,2.58,0,0,1,.54-.46c.72-.41,1.38-.65,1.38-1.69a3.8,3.8,0,0,1,.24-1.79c.29-.72.65-.74.65-1.69,0-.46-.48-1-.64-1.39-.57-1.38.11-2-.66-2.89a6.12,6.12,0,0,0-.95-.6,4,4,0,0,1-1.39-1.67,1.18,1.18,0,0,0-.54-.49c-.91-.45-1.34.34-3.27-.83-1.06-.64-1.66.11-2.29.38-1.42.62-2.49-.16-3.16,1a5.36,5.36,0,0,1-.84,1.23c-.72.72-1.33.61-1.72,1.38a1.51,1.51,0,0,0-.15.88,4.46,4.46,0,0,1-.07,1c-.23,1.18-.86,1.38-.86,2.23M16.89,23a6.05,6.05,0,0,1-4.08-1.43,6.39,6.39,0,0,1-1.67-2.15,6.27,6.27,0,0,1,0-5.28,5.82,5.82,0,0,1,1.07-1.58,4.73,4.73,0,0,1,.57-.56,6.08,6.08,0,0,1,1.39-.89,6.15,6.15,0,0,1,2.8-.57,6.29,6.29,0,0,1,3.41,1.13l.62.51c.09.09.15.11.22.19s.09.12.17.21A6.19,6.19,0,0,1,23,16.89a6.28,6.28,0,0,1-.56,2.5,6.94,6.94,0,0,1-.88,1.39,6.59,6.59,0,0,1-1.2,1.11l-1,.57A6.28,6.28,0,0,1,16.89,23Z"/></svg>