<svg xmlns="http://www.w3.org/2000/svg" viewBox="0 0 33.58 33.58"><defs><style>.a{fill:#e31e24;}.a,.b{fill-rule:evenodd;}.b{fill:#fefefe;}</style></defs><title>advantages.1</title><path class="a" d="M1.14,14,14,1.14a3.92,3.92,0,0,1,5.52,0L32.44,14a3.92,3.92,0,0,1,0,5.52L19.55,32.44a3.92,3.92,0,0,1-5.52,0L1.14,19.55a3.92,3.92,0,0,1,0-5.52"/><path class="b" d="M19.44,20.37l.24.24-.15.15c0,.08,2.73,2.74,2.93,2.94a1.13,1.13,0,0,0,.26.23.88.88,0,0,0,1.22-1.21,1.05,1.05,0,0,0-.23-.26c-.2-.2-2.87-2.9-2.95-2.94l-.14.15-.25-.24a1.16,1.16,0,0,1,.1-.15l.11-.16a4.35,4.35,0,0,0,.49-1.1,4.56,4.56,0,0,0,.13-1.89,4.46,4.46,0,0,0-8.86.42,4.42,4.42,0,0,0,.84,2.84l.24.3a4.4,4.4,0,0,0,2.72,1.5A4.62,4.62,0,0,0,18,21.07a4.78,4.78,0,0,0,1.41-.7m-3-7a3.38,3.38,0,0,1,2.71,5.8l-.1.1a3.39,3.39,0,0,1-4.84-4.74l.1-.12.11-.1.1-.1.11-.1A3.37,3.37,0,0,1,16.43,13.41Z"/><path class="b" d="M10,16.27c-.14,0-.19,0-.2.18a1.59,1.59,0,0,0,.28.89c.12.1,0-.05.12.27s.18.36.18.61c0,.47.07.35-.22.5l-.21.11a10.85,10.85,0,0,0-1.18.75c-.83.62-.7.51-.7,1.87a4.33,4.33,0,0,0,.43.17,7.64,7.64,0,0,0,3.64.62,3.59,3.59,0,0,1,.12-1.34,1.42,1.42,0,0,1,.3-.43l.2-.16.1-.08.1-.09-.42-.55a5.08,5.08,0,0,1-.37-5c0-.1.13-.23.17-.33a1.5,1.5,0,0,0-1.79.27,1.64,1.64,0,0,0-.51.69,1.44,1.44,0,0,0,0,1"/><path class="b" d="M15,16.59c-.15,0-.2.07-.22.21a1.11,1.11,0,0,0,0,.39c.05.22.15.57.32.68s0,0,.05.05a2.73,2.73,0,0,0,.14.53.87.87,0,0,1,.12.32c0,.15,0,.3,0,.45s.45.23.58.26a2.82,2.82,0,0,0,1.5,0,1.75,1.75,0,0,0,.59-.27,2.21,2.21,0,0,1,0-.68,2.93,2.93,0,0,0,.16-.56c.22.07.34-.33.39-.52s.19-.66,0-.73a4.23,4.23,0,0,0,.08-1,1,1,0,0,0-.36-.76c-.17-.11-.16,0-.26-.15a1.62,1.62,0,0,0-.37-.34,1.56,1.56,0,0,0-.87-.26,1.74,1.74,0,0,0-1.23.46,2.09,2.09,0,0,0-.68,1,1.63,1.63,0,0,0,0,1"/><path class="b" d="M21.26,14.41a1.78,1.78,0,0,0,.11.24c0,.09.08.17.11.26a5,5,0,0,1,.2,3.19,5.24,5.24,0,0,1-.18.56l-.23.51c.22.2.7.7.94.94L24,21.89c0,.05.06.09.14.07a12.94,12.94,0,0,0,1.38-.51,6.47,6.47,0,0,0,0-1.23c-.1-.25-.44-.48-.66-.63a13.13,13.13,0,0,0-1.18-.75c-.11-.07-.34-.16-.43-.23a3.35,3.35,0,0,1,0-.64,3,3,0,0,0,.16-.51c.22,0,.28-.23.35-.46s.15-.52,0-.62c.07-.45.22-1.15-.19-1.53-.14-.13-.2,0-.29-.19a.42.42,0,0,0-.07-.09,1.41,1.41,0,0,0-1.65-.27l-.2.12"/><path class="b" d="M12.78,22.62l.89.34a8.86,8.86,0,0,0,6.09.07c.13,0,.76-.27.83-.33l-1.43-1.44a5.92,5.92,0,0,1-1.39.49,5,5,0,0,1-4.21-1.07.89.89,0,0,0-.14-.11,3.67,3.67,0,0,0-.38.3c-.32.29-.26.67-.26,1.08v.68"/><path class="b" d="M17.85,11.67c-.11,0-.18,0-.18.14s.34.08.44.1a5.06,5.06,0,0,1,1.85.95l.29.26a1.77,1.77,0,0,1,.28.29l0-.06,0-.07.05-.14a1.76,1.76,0,0,0,.08-.31c.26.07.41-.61.42-.79a.45.45,0,0,0,0-.18c0-.07,0-.07-.1-.11a3.65,3.65,0,0,0,.07-.91.85.85,0,0,0-.32-.66c-.14-.09-.14,0-.22-.13a1.43,1.43,0,0,0-1.87-.3,2.51,2.51,0,0,0-.53.45,1.53,1.53,0,0,0-.34.64,1.43,1.43,0,0,0,0,.84"/><path class="b" d="M12.63,11.67c-.22,0-.22.19-.19.39a2.54,2.54,0,0,0,.15.49c.13.3.17.14.2.27s0,.09,0,.14a2.4,2.4,0,0,0,.17.47,1.6,1.6,0,0,0,.14-.14l.44-.41a4.5,4.5,0,0,1,.66-.47A4.64,4.64,0,0,1,15,12l.43-.14c.13,0,.36-.07.47-.11-.1-.11-.07,0,0-.36a1.45,1.45,0,0,0-.24-1.22.43.43,0,0,0-.15-.09c-.22-.08,0-.08-.4-.35a1.49,1.49,0,0,0-1.84.15l-.26.24a1.44,1.44,0,0,0-.36.64,1.37,1.37,0,0,0,0,.87"/></svg>