<svg xmlns="http://www.w3.org/2000/svg" viewBox="0 0 33.58 33.58"><defs><style>.a{fill:#e31e24;}.a,.b{fill-rule:evenodd;}.b{fill:#fefefe;}</style></defs><title>advantages-4</title><path class="a" d="M1.14,14,14,1.14a3.92,3.92,0,0,1,5.52,0L32.44,14a3.92,3.92,0,0,1,0,5.52L19.55,32.44a3.92,3.92,0,0,1-5.52,0L1.14,19.55a3.92,3.92,0,0,1,0-5.52"/><path class="b" d="M12.83,15.3a1.62,1.62,0,0,1-1.13-2.77s.06,0,.07-.08l-.76,0s-.05.1-.07.15c-.18.4-.3.64-.47,1.07a12.05,12.05,0,0,0-.95,4.67l.23.06.08-.13a1.35,1.35,0,0,1,1.48-.56,1.34,1.34,0,0,1,.28.11c.1.05.15.1.23.15s.16-.08.31-.13a1.36,1.36,0,0,1,.91,0,1.91,1.91,0,0,1,.38.24l.14-.07a1.35,1.35,0,0,1,1.79.67l.06.15a1.09,1.09,0,0,0,0,.16,1.36,1.36,0,0,1,1.3.85,1.4,1.4,0,0,1,0,.92c0,.13-.2.79-.19.88.22.18.61.44.85.62l.43.31s.06.06.14,0a.8.8,0,0,0,.69-.59.85.85,0,0,0,0-.34c0-.06-.15-.13-.2-.17s-1-.73-1.06-.77a.16.16,0,0,1,0-.24c.11-.06.19,0,.26.08l.21.15.85.61.22.16.08.06,0,0,.1.08.22.16c.09.07.1.11.26.08a.81.81,0,0,0,.68-.79c0-.17,0-.16-.11-.23l-1.39-1-.4-.29a2.8,2.8,0,0,1-.38-.3.16.16,0,0,1,.08-.22c.11,0,.18,0,.24.08L21,21a.13.13,0,0,0,.13,0,.81.81,0,0,0,.74-.79c0-.23,0-.21-.16-.32l-.26-.19L21,19.39l-1.3-.93a.16.16,0,0,1,0-.28c.12-.06.24.06.31.11L22.3,20l.13.09c.13.09.17.18.49,0a.8.8,0,0,0,.42-.47.83.83,0,0,0-.09-.71,1.82,1.82,0,0,0-.48-.41l-1-.74-2.07-1.49c-.69-.49-1.38-1-2.06-1.49a3.07,3.07,0,0,0-.54-.35l-.61-.28L16.15,14,16,13.91s-.11-.07-.16,0l-2.28,1.27a1.62,1.62,0,0,1-.72.16"/><path class="b" d="M24.49,18.08a8.67,8.67,0,0,0-.2-2.5,6.53,6.53,0,0,0-1.05-2.36c-.2-.25-.11-.2-.44-.15a5.23,5.23,0,0,1-1.84.09,15.3,15.3,0,0,1-1.43-.62l-2.81-1.28c-.57-.27-.92-.48-1.54-.12l-.44.24-.88.49c-.26.15-1.56.84-1.74,1a1.09,1.09,0,0,0,1.31,1.72c.15-.09,2.38-1.33,2.41-1.33s1.22.55,1.41.64a1.28,1.28,0,0,1,.43.25l3.36,2.43.79.57c.14.1,1.48,1.06,1.58,1.15s.08,0,.25,0l.27-.07c.17,0,.38-.09.54-.14"/><path class="b" d="M11.75,18.83a.81.81,0,0,0-1.61.22,5.49,5.49,0,0,0,.14.65,3.79,3.79,0,0,0,.16.62.81.81,0,0,0,.71.47.93.93,0,0,0,.33-.05,1,1,0,0,0,.24.35A.81.81,0,0,0,12.85,21l0,0,0,0a.82.82,0,0,0,1.07,1,.93.93,0,0,0,.4-.31.81.81,0,0,0,1.54.41,4.65,4.65,0,0,0,.19-.75c.06-.25.13-.52.18-.77a.81.81,0,0,0-1.25-.83,1.1,1.1,0,0,0-.24.23,2.48,2.48,0,0,0,.1-.83.81.81,0,0,0-1.18-.53.83.83,0,0,0-.41.54.81.81,0,0,0-1.45-.48l-.07.11-.06.11"/><path class="b" d="M9,18.4a10.29,10.29,0,0,1,.13-1.85,13.55,13.55,0,0,1,.37-1.63,17.44,17.44,0,0,1,.8-2.19l.16-.34c0-.11.13-.24.16-.34a10.85,10.85,0,0,0-1.05-.53.5.5,0,0,0-.54.23,3.93,3.93,0,0,0-.2.59L7.3,17.16a1,1,0,0,0-.09.64.53.53,0,0,0,.46.34c.28.06,1.11.24,1.33.27"/><path class="b" d="M23.4,12.57l.2.25.19.28A8.16,8.16,0,0,1,25,16.59c0,.29.05.58.06.88s0,.62,0,.93c.21,0,.45,0,.67,0s.39,0,.55-.15a.56.56,0,0,0,.14-.54l-.56-5a.6.6,0,0,0-.21-.48.58.58,0,0,0-.55-.06Z"/></svg>