<svg xmlns="http://www.w3.org/2000/svg" viewBox="0 0 386.3 139.98"><defs><style>.a{fill:#ebecec;}.a,.b,.c,.e,.f,.g{fill-rule:evenodd;}.b{fill:#d9dada;}.c{fill:#c5c6c6;}.d,.h{fill:none;stroke-miterlimit:22.93;stroke-width:0.22px;}.d{stroke:#e31e24;}.e{fill:#b93327;}.f,.i{fill:#e31e24;}.g{fill:#9f2d20;}.h{stroke:#b93327;}</style></defs><title>bridge</title><polygon class="a" points="386.22 38.42 378.09 37.63 377.73 37.21 377.73 36.17 374.57 36.17 368.85 35.74 368.28 35.25 368.28 34.61 366.67 34.61 366.67 28.87 363.55 28.65 359.3 45.28 357.49 40.86 356.81 40.86 356.81 40.3 354.35 40.3 354.35 42.07 353.62 41.65 353.62 30.07 353.52 30.07 353.52 29.29 353.38 29.29 353.38 27.47 353.18 27.47 353.18 27.1 353 27.1 353 26.34 351.33 26.34 351.33 27.07 351.19 27.07 351.19 27.48 350.98 27.48 350.98 29.27 350.83 29.27 350.83 30.06 350.72 30.06 350.72 37.98 349 37.98 349 38.32 348.78 38.32 348.78 34.52 348.43 34.52 348.43 32.35 348.13 32.35 348.13 31.87 347.6 31.87 347.33 30.88 347.25 30.88 347.25 30.43 347.12 30.43 347.12 30.27 346.93 30.27 346.93 30.42 346.82 30.42 346.82 30.85 346.72 30.85 346.45 31.86 345.96 31.86 345.96 32.35 345.74 32.35 345.74 34.53 345.43 34.53 345.43 36.03 345.28 36.03 345.28 35.45 344.77 34.94 344.6 34.94 344.6 34.73 344.36 34.73 344.36 34.93 344.21 34.93 343.7 35.44 343.7 40 340.45 36.02 340.45 27.3 340.68 27.3 340.68 26.49 340.8 26.49 340.8 26.15 340.59 26.15 340.59 25.9 337.05 25.9 337.05 26.16 336.84 26.16 336.84 26.48 336.94 26.48 336.94 27.3 337.07 27.3 337.07 35.27 321.73 39.03 321.35 39.03 321.35 38.85 320.86 38.85 320.86 38.65 319.37 38.65 319.37 38.22 319.02 38.22 319.02 33.7 318.72 33.7 318.72 30.64 317.89 30.64 317.89 30.29 317.07 30.29 317.07 30.63 313.64 30.63 313.64 41.97 312.45 39.6 312.45 28.08 310.61 27.59 309.18 27.97 309.18 31.17 306.42 35.07 306.18 34.67 305.6 33.67 305.6 32.42 305.47 32.42 305.47 31.94 305.31 31.94 305.31 31.36 305.13 31.36 305.13 30.12 303.5 30.12 303.5 31.37 303.27 31.37 303.27 31.93 303.13 31.93 303.13 32.4 302.97 32.4 302.97 34.28 302.5 34.28 302.5 31 302.27 31 302.27 29.76 302.07 29.76 301.05 27.13 301.06 26.63 300.76 26.63 300.76 27.13 299.68 29.7 299.52 29.7 299.52 31.04 299.34 31.04 299.34 39.81 298.3 39.81 298.63 38.91 298.63 31.25 298.53 31.25 298.53 30.89 297.85 30.89 297.85 30.39 297.52 30.39 297.52 29.78 297.41 29.78 297.41 29.26 297.26 29.26 297.18 28.67 296.71 28.67 296.63 29.24 296.42 29.24 296.42 29.77 296.32 29.77 296.32 30.38 296.12 30.38 296.12 30.24 293.64 30.24 293.64 30.42 292.15 31.69 292.15 39.78 291.47 40.6 290.65 40.6 290.65 56.09 386.22 56.09 386.22 38.42"/><path class="b" d="M386.22,33a32.34,32.34,0,0,0-3.41-.22,11.16,11.16,0,0,0-3.9.35v2.33l-.81.22v8.54l-1.93.09h-.83V36.26l-.62-.17V34.84h-.12V34l-.5-.06-2.58-1.41-2.57,1.42h-.48v.9h-.09v.45h-.1v.91h-.55v8.24h-.62v5.42h-.78v.59h-.67l-1-15.81L363.4,19.29h-.26v-.4s-.37-.54-1.83-.54-1.88.47-1.88.47l0,.45h-.25l-2.33,30.38h-.39v-.33h-1l-7,.4-.24-.41v-.25h-.1l-.55-.78h-1.84l-.42.73V44.2h-.37v-.49h-.83v-.32h-.29V39h-.35V38h-.22v-.58h-.35v-.61l-.77-.77h-3.32l-.8.8v.58h-.37V35.06H336V28.53l-3.23-.63-3.1.61v6.24l-2.26-.17-3.86.37v.92l-1.79.26V47.45h-.15v-.16h-7.25l-.81-7.64h-2.24v.25h-.58v1h-.51l.25.95v1.86H310V30.13l-3.6,1v3.44h-.23v9.75l-2.22-2v-.32l.18-.31V41h-4.28v.25h-.48l-5.67-1.61-.08-.65v-.18h-.55v-.21h-1.48v.2h-.37v3h-.59V56.14h95.57Z"/><path class="c" d="M386.22,44.16h-.9V42.42h-.85V40h-.6V38.92h-.14v-.47h-.48V38h-.39v-.44h-.37v-.38L380.33,37l-2.23.1v.41h-.37V38h-.41v.46h-.47v.52h-.23v1.11h-.46v9.28h-.5v2.35H373.9V51h-2.36V49.71a1.13,1.13,0,0,0-.47-.7,1.1,1.1,0,0,0-.63-.14l-.13-.17h-2.45l-.15.17a1.22,1.22,0,0,0-.91.35,1.07,1.07,0,0,0-.24.72v1.13h-.79V36.93h-.73v-2h-.79v-.5H364a2.08,2.08,0,0,0-2.07-1.24,2.32,2.32,0,0,0-2.18,1.23h-.29v.5h-1.07v2h-.45v5.75h-.58v7.29h-.53v1.48h-1.22V42.66h-.3V42h-2.07l-3.69.3v6.79h-.63v.54h-1v.71H344v2h-2.1V47.52h-.66v-.41H338v.36h-.25v.77h-.39v-5H336v-.13h-.17V42.5h-.15v.19h-.86v.61h-1.67v4.35h-1.48l-.14-.48h-.61l-.09.47h-1.22V45.74h-1V44.21l-.57-.15H325l-.55.15v5.18h-.74V49h-.85v.42h-.3l.09.16H320v-.2H318V40.19h-.24v-.27h-.69v-1h-.24v-.29h-.21v-.5h-2.13v.5h-.17v.29H314v1h-.55v.26h-.34V48h-.16v1.44h-1.41V49H309.9v.38h-.4v.07h0v.11H308v-6h-.78v-.33h-1.11v-.4h-1.22v-.32H303.8v.32h-.71v.74h-.22v.69h-.46v4.66h-.89v.62h-.46v-.63h-1.46v.63h-.09V39.24h-6v1.28h-.67V49.4h-.69v-.69h-.42l-.42-.24-.39.22h-.28v7.73h95.57Z"/><polygon class="a" points="195.39 28.75 197.23 28.9 197.23 31.85 197.68 31.85 206.28 31.01 206.65 30.6 206.65 29.56 209.81 29.56 215.52 29.13 216.1 28.63 216.1 27.99 217.71 27.99 217.71 22.25 220.82 22.04 225.08 38.66 226.89 34.24 227.57 34.24 227.57 33.68 230.03 33.68 230.03 35.45 230.76 35.03 230.76 23.45 230.86 23.45 230.86 22.67 231 22.67 231 20.85 231.19 20.85 231.19 20.48 231.37 20.48 231.37 19.72 233.05 19.72 233.05 20.45 233.19 20.45 233.19 20.86 233.4 20.86 233.4 22.66 233.54 22.66 233.54 23.44 233.66 23.44 233.66 31.36 235.37 31.36 235.37 31.7 235.6 31.7 235.6 27.91 235.95 27.91 235.95 25.73 236.25 25.73 236.25 25.25 236.78 25.25 237.04 24.26 237.13 24.26 237.13 23.81 237.26 23.81 237.26 23.66 237.44 23.66 237.44 23.81 237.56 23.81 237.56 24.24 237.66 24.24 237.93 25.24 238.42 25.24 238.42 25.73 238.64 25.73 238.64 27.92 238.95 27.92 238.95 29.42 239.1 29.42 239.1 28.83 239.61 28.32 239.78 28.32 239.78 28.11 240.02 28.11 240.02 28.31 240.16 28.31 240.68 28.82 240.68 33.39 243.93 29.4 243.93 20.68 243.7 20.68 243.7 19.87 243.58 19.87 243.58 19.54 243.79 19.54 243.79 19.28 247.32 19.28 247.32 19.54 247.54 19.54 247.54 19.86 247.43 19.86 247.43 20.68 247.31 20.68 247.31 28.66 262.65 32.41 263.03 32.41 263.03 32.24 263.52 32.24 263.52 32.03 265.01 32.03 265.01 31.61 265.35 31.61 265.35 27.09 265.66 27.09 265.66 24.02 266.48 24.02 266.48 23.68 267.31 23.68 267.31 24.02 270.74 24.02 270.74 35.36 271.92 32.98 271.92 21.46 273.76 20.97 275.2 21.36 275.2 24.56 277.96 28.45 278.2 28.05 278.77 27.06 278.77 25.8 278.91 25.8 278.91 25.32 279.07 25.32 279.07 24.74 279.24 24.74 279.24 23.5 280.88 23.5 280.88 24.76 281.11 24.76 281.11 25.32 281.25 25.32 281.25 25.78 281.4 25.78 281.4 27.66 281.87 27.66 281.87 24.39 282.1 24.39 282.1 23.14 282.3 23.14 283.33 20.52 283.32 20.01 283.62 20.01 283.62 20.51 284.7 23.09 284.85 23.09 284.85 24.42 285.04 24.42 285.04 33.2 286.08 33.2 285.75 32.29 285.75 24.64 285.85 24.64 285.85 24.28 286.53 24.28 286.53 23.78 286.86 23.78 286.86 23.16 286.97 23.16 286.97 22.64 287.11 22.64 287.2 22.06 287.67 22.06 287.74 22.63 287.96 22.63 287.96 23.15 288.06 23.15 288.06 23.77 288.26 23.77 288.26 23.63 290.74 23.63 290.74 23.81 292.23 25.08 292.23 33.17 292.91 33.98 293.73 33.98 293.73 49.48 195.34 49.48 195.39 28.75"/><path class="b" d="M195.34,36.65h.36v-.14h1.08v.13h.77V26.5a22.8,22.8,0,0,1,4-.31,11.16,11.16,0,0,1,3.9.35v2.33l.81.22v8.54l1.93.09H209V29.65l.63-.17V28.23h.12v-.85l.5-.06,2.58-1.41,2.57,1.42h.48v.9H216v.45h.1v.91h.55v8.24h.62v5.42h.78v.59h.67l1-15.81.71-9.1h5.23L227.56,43H228v-.33h1l7,.4.24-.41v-.25h.1l.55-.78h1.84l.42.73V37.59h.37v-.49h.83v-.32h.29V32.43h.35v-1h.22v-.58h.35v-.61l.77-.77h3.32l.8.8v.58h.37V28.44h1.64V21.91l3.23-.63,3.1.61v6.24L257,28l3.86.37v.92l1.79.26V40.83h.15v-.16H270l.81-7.64h2.24v.25h.58v1h.51l-.25.95v1.86h.43V23.51l3.6,1v3.44h.23v9.75l2.22-2v-.32l-.18-.31v-.58h4.28v.25H285l5.67-1.61.08-.65v-.18h.55V32h1.48v.2h.37v3h.59V49.52H195.34Z"/><path class="c" d="M195.34,37.54h3.71V35.8h.85V33.36h.6V32.31h.14v-.47h.48v-.48h.39v-.44h.38v-.38l2.16-.12,2.23.1v.41h.37v.42h.41v.46h.47v.52h.23v1.11h.46v9.28h.5v2.35h1.76v-.69h2.36V43.09a1.13,1.13,0,0,1,.47-.7,1.1,1.1,0,0,1,.63-.14l.13-.17h2.45l.15.17a1.22,1.22,0,0,1,.91.35,1.07,1.07,0,0,1,.24.72v1.13h.79V30.32h.73v-2h.79v-.5h.29a2.08,2.08,0,0,1,2.07-1.24,2.32,2.32,0,0,1,2.18,1.23h.29v.5H226v2h.45V36H227v7.29h.53V44.8h1.22V36h.3v-.69h2.07l3.69.3v6.79h.63V43h1v.71h3.91v2h2.1V40.91h.66V40.5h3.22v.36h.25v.77H247v-5h1.38v-.13h.17v-.66h.15v.19h.86v.61h1.67V41h1.48l.14-.48h.61l.09.47h1.22V39.12h1V37.59l.57-.15h3.05l.55.15v5.18h.74v-.41h.85v.42h.3l-.09.16h2.67v-.2h1.94V33.58h.24v-.27h.69v-1h.24V32h.21v-.5h2.13V32H270v.29h.36v1h.55v.26h.34v7.78h.16v1.44h1.41v-.38h1.62v.38h.4v.07h0V43h1.5V37h.78v-.33h1.11v-.4h1.22v-.32h1.14v.32h.71V37h.22v.69H282v4.66h.89v.62h.46v-.63h1.46v.63h.09V32.62h6V33.9h.67v8.89h.69V42.1h.42l.42-.24.39.22h.28V49.8H195.34Z"/><polygon class="a" points="196.49 23.85 194.65 23.99 194.65 26.94 194.2 26.94 185.59 26.11 185.23 25.69 185.23 24.65 182.07 24.65 176.35 24.22 175.78 23.73 175.78 23.09 174.17 23.09 174.17 17.35 171.05 17.13 166.8 33.76 164.99 29.34 164.31 29.34 164.31 28.78 161.85 28.78 161.85 30.55 161.12 30.13 161.12 18.55 161.02 18.55 161.02 17.77 160.88 17.77 160.88 15.95 160.69 15.95 160.69 15.58 160.5 15.58 160.5 14.82 158.83 14.82 158.83 15.54 158.69 15.54 158.69 15.96 158.48 15.96 158.48 17.75 158.33 17.75 158.33 18.54 158.22 18.54 158.22 26.46 156.51 26.46 156.51 26.8 156.28 26.8 156.28 23 155.93 23 155.93 20.83 155.63 20.83 155.63 20.35 155.1 20.35 154.83 19.36 154.75 19.36 154.75 18.91 154.62 18.91 154.62 18.75 154.44 18.75 154.44 18.9 154.32 18.9 154.32 19.33 154.22 19.33 153.95 20.34 153.46 20.34 153.46 20.83 153.24 20.83 153.24 23.01 152.93 23.01 152.93 24.52 152.78 24.52 152.78 23.93 152.27 23.42 152.1 23.42 152.1 23.21 151.86 23.21 151.86 23.41 151.72 23.41 151.2 23.92 151.2 28.48 147.95 24.5 147.95 15.78 148.18 15.78 148.18 14.97 148.3 14.97 148.3 14.63 148.09 14.63 148.09 14.38 144.56 14.38 144.56 14.64 144.34 14.64 144.34 14.96 144.45 14.96 144.45 15.78 144.57 15.78 144.57 23.75 129.23 27.51 128.85 27.51 128.85 27.33 128.36 27.33 128.36 27.13 126.87 27.13 126.87 26.7 126.53 26.7 126.53 22.18 126.22 22.18 126.22 19.12 125.4 19.12 125.4 18.77 124.57 18.77 124.57 19.11 121.14 19.11 121.14 30.45 119.96 28.08 119.96 16.56 118.11 16.07 116.68 16.45 116.68 19.65 113.92 23.55 113.68 23.15 113.11 22.15 113.11 20.9 112.97 20.9 112.97 20.42 112.81 20.42 112.81 19.84 112.64 19.84 112.64 18.6 111 18.6 111 19.85 110.77 19.85 110.77 20.41 110.63 20.41 110.63 20.88 110.48 20.88 110.48 22.76 110.01 22.76 110.01 19.48 109.78 19.48 109.78 18.24 109.58 18.24 108.55 15.61 108.56 15.11 108.26 15.11 108.26 15.61 107.18 18.18 107.03 18.18 107.03 19.52 106.84 19.52 106.84 28.29 105.8 28.29 106.13 27.39 106.13 19.73 106.03 19.73 106.03 19.37 105.35 19.37 105.35 18.87 105.02 18.87 105.02 18.26 104.91 18.26 104.91 17.74 104.77 17.74 104.68 17.15 104.21 17.15 104.14 17.72 103.92 17.72 103.92 18.25 103.82 18.25 103.82 18.86 103.62 18.86 103.62 18.72 101.14 18.72 101.14 18.9 99.65 20.17 99.65 28.26 98.97 29.08 98.15 29.08 98.15 44.57 196.53 44.57 196.49 23.85"/><path class="b" d="M196.53,31.74h-.36V31.6H195.1v.13h-.77V21.6a22.8,22.8,0,0,0-4-.32,11.16,11.16,0,0,0-3.9.35V24l-.81.22v8.54l-1.93.09h-.83V24.74l-.62-.17V23.32h-.12v-.85l-.5-.06L179,21l-2.57,1.42H176v.9h-.09v.45h-.1v.91h-.55v8.24h-.62v5.42h-.78v.59h-.67l-1-15.81-.4-5h-.87V14.81h-.89v-2h-2.37v1.88h-1.47l-1.8,23.42h-.39V37.8h-1l-7,.4-.24-.41v-.25h-.1l-.55-.78H153.2l-.42.73V32.68h-.37v-.49h-.83v-.32h-.29V27.53h-.35v-1h-.22v-.58h-.35v-.61l-.77-.77h-3.32l-.8.8v.58h-.37V23.54h-1.64V17l-3.23-.63-3.1.61v6.24l-2.26-.17-3.86.37v.92l-1.79.26V35.93h-.15v-.16h-7.25L121,28.12h-2.24v.25h-.58v1h-.51l.25.95v1.85h-.43V18.61l-3.6,1V23h-.23v9.75l-2.22-2v-.32l.18-.31v-.58h-4.28v.25h-.48l-5.67-1.61-.08-.65v-.18h-.55v-.21H99.11v.2h-.37v3h-.59V44.62h98.39Z"/><path class="c" d="M196.53,32.64h-3.71V30.9H192V28.46h-.6V27.4h-.14v-.47h-.48v-.48h-.39V26H190v-.38l-2.16-.12-2.23.1V26h-.37v.42h-.41v.46h-.47v.52h-.23v1.11h-.46v9.28h-.5v2.35H181.4v-.69H179V38.19a1.13,1.13,0,0,0-.47-.7,1.1,1.1,0,0,0-.63-.14l-.13-.17h-2.45l-.15.17a1.22,1.22,0,0,0-.91.35,1.07,1.07,0,0,0-.24.72v1.13h-.79V25.41h-.73v-2h-.79v-.5h-.29a2.08,2.08,0,0,0-2.07-1.24,2.32,2.32,0,0,0-2.18,1.23h-.29v.5h-1.07v2h-.45v5.75h-.58v7.29h-.53v1.48h-1.22V31.14h-.3v-.69h-2.07l-3.69.3v6.79h-.63v.54h-1v.71h-3.91v2h-2.1V36h-.66V35.6h-3.22V36h-.25v.77h-.39v-5h-1.38v-.13h-.17V31h-.15v.19h-.86v.61h-1.67v4.35h-1.48l-.14-.48h-.61l-.09.47h-1.22V34.22h-1V32.69l-.57-.15h-3.05l-.55.15v5.18h-.74v-.41h-.85v.42h-.3l.09.16h-2.67v-.2h-1.94V28.67h-.24v-.27h-.69v-1h-.24V27.1h-.21v-.5H122v.5h-.17v.29h-.36v1h-.55v.26h-.34v7.78h-.16v1.44H119v-.38h-1.62v.38H117V38h0v.11h-1.5v-6h-.78v-.33h-1.11v-.4h-1.22V31h-1.14v.32h-.71v.74h-.22v.69h-.46v4.66H109V38h-.46v-.63h-1.46V38H107V27.72h-6V29h-.67v8.89h-.69v-.69h-.42L98.81,37l-.39.22h-.28V44.9h98.39Z"/><polygon class="a" points="0.08 17.02 1.92 17.16 1.92 20.11 2.37 20.11 10.98 19.28 11.34 18.86 11.34 17.82 14.5 17.82 20.22 17.39 20.79 16.9 20.79 16.26 22.4 16.26 22.4 10.52 25.52 10.3 29.77 26.93 31.58 22.51 32.26 22.51 32.26 21.95 34.72 21.95 34.72 23.72 35.45 23.3 35.45 11.72 35.55 11.72 35.55 10.94 35.69 10.94 35.69 9.12 35.89 9.12 35.89 8.75 36.07 8.75 36.07 7.99 37.74 7.99 37.74 8.72 37.88 8.72 37.88 9.13 38.09 9.13 38.09 10.93 38.24 10.93 38.24 11.71 38.35 11.71 38.35 19.63 40.06 19.63 40.06 19.97 40.29 19.97 40.29 16.17 40.64 16.17 40.64 14 40.94 14 40.94 13.52 41.47 13.52 41.74 12.53 41.82 12.53 41.82 12.08 41.95 12.08 41.95 11.92 42.14 11.92 42.14 12.07 42.25 12.07 42.25 12.5 42.35 12.5 42.62 13.51 43.11 13.51 43.11 14 43.33 14 43.33 16.18 43.64 16.18 43.64 17.69 43.79 17.69 43.79 17.1 44.3 16.59 44.47 16.59 44.47 16.38 44.71 16.38 44.71 16.58 44.86 16.58 45.37 17.09 45.37 21.65 48.62 17.67 48.62 8.95 48.39 8.95 48.39 8.14 48.27 8.14 48.27 7.8 48.48 7.8 48.48 7.55 52.02 7.55 52.02 7.81 52.23 7.81 52.23 8.13 52.13 8.13 52.13 8.95 52 8.95 52 16.92 67.34 20.68 67.72 20.68 67.72 20.5 68.21 20.5 68.21 20.3 69.7 20.3 69.7 19.87 70.05 19.87 70.05 15.36 70.35 15.36 70.35 12.29 71.17 12.29 71.17 11.95 72 11.95 72 12.28 75.43 12.28 75.43 23.62 76.61 21.25 76.61 9.73 78.46 9.24 79.89 9.62 79.89 12.82 82.65 16.72 82.89 16.32 83.47 15.32 83.47 14.07 83.6 14.07 83.6 13.59 83.76 13.59 83.76 13.01 83.94 13.01 83.94 11.77 85.57 11.77 85.57 13.02 85.8 13.02 85.8 13.59 85.94 13.59 85.94 14.05 86.1 14.05 86.1 15.93 86.56 15.93 86.56 12.65 86.8 12.65 86.8 11.41 87 11.41 88.02 8.78 88.01 8.28 88.31 8.28 88.31 8.78 89.39 11.35 89.55 11.35 89.55 12.69 89.73 12.69 89.73 21.46 90.78 21.46 90.44 20.56 90.44 12.9 90.54 12.9 90.54 12.54 91.22 12.54 91.22 12.04 91.55 12.04 91.55 11.43 91.66 11.43 91.66 10.91 91.8 10.91 91.89 10.32 92.36 10.32 92.43 10.89 92.65 10.89 92.65 11.42 92.75 11.42 92.75 12.03 92.95 12.03 92.95 11.89 95.43 11.89 95.43 12.07 96.92 13.34 96.92 21.43 97.6 22.25 98.42 22.25 98.42 37.74 0.04 37.74 0.08 17.02"/><path class="b" d="M0,24.91H.4v-.14H1.47v.13h.77V14.77a22.8,22.8,0,0,1,4-.31,11.16,11.16,0,0,1,3.9.35v2.33l.81.22v8.54l1.93.09h.83V17.91l.63-.17V16.5h.12v-.85l.5-.06,2.58-1.41,2.57,1.42h.48v.9h.09v.45h.1v.91h.55V26.1H22v5.42h.78v.59h.67l1-15.81L25.67.94h.26V.54S26.29,0,27.76,0s1.88.47,1.88.47l0,.45h.25l2.33,30.38h.39V31h1l7,.4.24-.41v-.25H41l.55-.78h1.84l.42.73V25.85h.37v-.49H45V25h.29V20.7h.35v-1h.22v-.58h.35v-.61l.77-.77h3.32l.8.8v.58h.37V16.71h1.64V10.18l3.23-.63,3.1.61V16.4l2.26-.17,3.86.37v.92l1.79.26V29.1h.15v-.16h7.25l.81-7.64h2.24v.25h.58v1h.51l-.25.95v1.86h.43V11.78l3.6,1v3.44h.23v9.75l2.22-2v-.32l-.18-.31v-.58h4.28v.25h.48l5.67-1.61.08-.65v-.18H96v-.21h1.48v.2h.37v3h.59V37.79H0Z"/><path class="c" d="M0,25.81H3.75V24.07H4.6V21.63h.6V20.57h.14V20.1h.48v-.48h.39v-.44h.38V18.8l2.16-.12,2.23.1v.41h.37v.42h.41v.46h.47v.52h.23v1.11h.46V31h.5v2.35h1.76v-.69h2.36V31.36a1.13,1.13,0,0,1,.47-.7,1.1,1.1,0,0,1,.63-.14l.13-.17h2.45l.15.17a1.22,1.22,0,0,1,.91.35,1.07,1.07,0,0,1,.24.72v1.13h.79V18.58H24v-2h.79v-.5h.29a2.08,2.08,0,0,1,2.07-1.24,2.32,2.32,0,0,1,2.18,1.23h.29v.5H30.7v2h.45V24.3h.58v7.29h.53v1.48h1.22V24.31h.3v-.69h2.07l3.69.3v6.79h.63v.54h1V32H45v2h2.1V29.17h.66v-.41H51v.36h.25v.77h.39v-5H53v-.13h.17v-.66h.15v.19h.86V25h1.67v4.35h1.48l.14-.48h.61l.09.47h1.22V27.39h1V25.86L61,25.7h3.05l.55.15V31h.74v-.41h.85v.42h.3l-.09.16H69.1V31H71V21.85h.24v-.27H72v-1h.24v-.29h.21v-.5h2.13v.5h.17v.29h.36v1h.55v.26H76v7.78h.16v1.44h1.41v-.38h1.62v.38h.4v.07h0v.11H81v-6h.78V24.9h1.11v-.4h1.22v-.32h1.14v.32H86v.74h.22v.69h.46v4.66h.89v.62H88v-.63h1.46v.63h.09V20.89h6v1.28h.67v8.89h.69v-.69h.42l.42-.24.39.22h.28v7.73H0Z"/><path class="a" d="M0,140H386.26V54.69L273.34,53l-96.71-2.92L56.25,44.92c-9.69-.42-51-3.06-51.71-1.93C3.33,44.78,1,45.21.43,45.92S.18,48.21.18,48.7c0,.79.07.93-.08,4.7C0,55.05.1,92.19.1,92.19Z"/><path class="b" d="M328.93,139.79a26.43,26.43,0,0,1-5.18-3.86c-2.25-2.25-.6-2.55-5-5.4A53.79,53.79,0,0,0,307.86,125c-4-1.65-6-1.65-9.6-4.35s-3-1.73-4.95-3.08-1.57-2.55-6.45-4a100.18,100.18,0,0,1-10.8-3.6,29.41,29.41,0,0,1-8.4-4.65c-3.3-2.55-4.5-3.6-7.5-5s-3.9-1.35-5.4-3S248.83,92,248.83,92L246.47,90l20,.31.35.52s3.1,2,5,3.4a7.08,7.08,0,0,0,3.68,1.8c2.18.6-.22-.22,2.93,1.2a28.84,28.84,0,0,0,6.75,2.33c2.1.45,2.25-.08,4.88,1.35a57.46,57.46,0,0,0,7.43,3.08c2.7,1,4.58,1.13,7.2,1.73a23.94,23.94,0,0,1,3.68.9c2.1.67,6.45,1.28,8.25,2.7s4.5,2.7,6,3.75a20.14,20.14,0,0,1,3.08,2.62c.82.83,19.2,11.85,22.8,13.65s7.22,2.52,8.71,4.34,2.7,6.16,2.7,6.16Z"/><path class="c" d="M0,47.48s3.72-.11,7-.11,4.31-.11,5.81,0,.53.3,2,.6.26.11,3.49.3,4.61.19,6.94.19,8.06.45,8.59.45,27.6,1,33,.79,4.31-.3,10.13-.26,8.48-.3,12.68.23,8.29,2.25,12.83,2,7.39.45,13,0,6.07-.41,9.52-.08,3.22,1.2,6.86,1.13,6.93-.31,10.69-.37,18.62-.77,21.15-.49c1.64.18,17.3,1,17.84,1a55.11,55.11,0,0,1,8,0c2.08.1,7.15.3,13,.76s-.85,1.48,5.84,1.49,6.88.41,9.05.41.22-.08,2.4-.6,1.27-1.35,3.68-.75.22,1.2,5.55,1.05,3.9.67,8.1.67,7.58,1.05,10,.23,4.65-1.35,6.3-.83,11.75.37,21.22,1.35a128.51,128.51,0,0,0,20.25.75c5-.23,7.11-.75,9-.49s-.65-.63,6.37.23,15.42.71,24.27.41,9.83.38,16.35.38,8.16.25,12.29.39,2.63-.09,6.38-.24,4.79-.84,7.91-.35,8.75.76,8.75.76V37.21s-43-1.86-50.57-.91-11.23,1-19.87,1.81a124.94,124.94,0,0,1-22.65.06c-5.18-.59-8-1-17.33-1.71s-15.37-.67-15.37-.67-14.63-.67-22.2,0a143.8,143.8,0,0,1-18.6.82c-7.12-.15-6.45.07-14.7-.6s-38.33-.75-50.93-.75-84-.75-93.45-.68-12.15-.15-20.1.3a75,75,0,0,1-16.73-1c-2.92-.45-23.68,0-23.68,0Z"/><path class="b" d="M.69,70.94s16.25-1,24.91-1.05,28.61-.37,33.71,0,15.08-.41,17-.45,7.72.3,19,.3,21.3,0,21.45-1.16-16.24-.79-21.75-.86-5.06-.64-13.27-.34-19.35.6-28.61.82S14.95,69.37,9,69.37s-8.3.19-8.3.19Z"/><path class="b" d="M0,102.24s8.71-.41,13.88-.64,12.75.08,16.2-.37,6.71-.38,11.74-.83,6.94-1.84,10.24-2.06a102.93,102.93,0,0,1,15.71-.64,121,121,0,0,0,15.41.38c7.54-.22,13.24-.38,20.93-.83s9.41-.08,15.6,0,13.73-.08,22.73-.26,11.59.83,18.26,0,11-1.27,16-1.69,19.13-2.1,27.56-2.55,9,0,13.5-1.31,15-1.65,15-1.65,42.64.67,51.11.79,43.58.75,51.08.15,9.56-1.31,11.25-1,6.3-.71,8.29-.71,11.74-.34,14.25-1.09,3.6-.26,6.56-.15,5.44-.26,7-.26a28.41,28.41,0,0,0,3.91-.43V70.1S377,69,372.62,69.8s-10.72,1.46-13.16,1.65-10.2,1.8-12.11,1.8-9.48-1.25-11.47-.35-1.81.76-4.24.76-4.2-.3-5.21-.34-13.1-4.39-22-4.56-20.71.06-23.56-.39-14.63-1.13-18-1.54-4.16-.48-7.24-1-2.7-.45-6.82-1.13a60.77,60.77,0,0,0-10.8-.82c-1.5.15-5.63.15-5.63.15s-12.65,0-17.71-.16-3,0-8.09-.34-53.33-1-62.48-.85-17.7.08-21.53.23-14.4-.23-19.72,0-13.73.15-19.43.3-16.87-.37-24.3.3-16,.37-22,.45-18.08.53-19.35,0,.83-.75-3.37-.53-5.63-.83-8.78-.6a38.19,38.19,0,0,1-5.6,0v14.7a17.48,17.48,0,0,1,4.62-.3c2.77.15,1.88.38,4.5.15s1.8-1.12,4.35-.15,2.25.9,4.8.9,2.7-.67,4.65-.37a38.79,38.79,0,0,0,5.17.3c3.22.15,4.13-.08,6.38.3s4.72.15,6,.38,3.15-.52,4.05-.45,1.95-.6,4-.45,2-.15,4.5.6,1,1.5,3.75.52,2.25-1.57,3.6-1.57,2.25,1.2,1.28,1.57a17.31,17.31,0,0,1-2.85.67c-2.25.53-2.1,1.28-6,1.58s-3.37.15-7.35.68a29.83,29.83,0,0,1-8.18.45c-4-.22-5-.45-7.58-.37s-3.22-.07-6.3.15a43,43,0,0,1-7.65-.3c-2.92-.22-4-.9-5.55-1.12s-2.85-.9-4.58-.6S0,81.2,0,81.2Z"/><path class="c" d="M231.53,75.12l2.63,1.72a18.21,18.21,0,0,1,2.61,2.32,5.73,5.73,0,0,1,2.09,1.92,11.22,11.22,0,0,0,3,3.21c1.22.94,1.65.88,2.44,2.16a21.26,21.26,0,0,0,1.18,2,13.67,13.67,0,0,1,1,1.53l3.86.06,16.12.25a72.74,72.74,0,0,0-6.11-5.64,77.37,77.37,0,0,0-7-4.65,17,17,0,0,0-4.54-1.65,6.8,6.8,0,0,1-2-.44l-4.66-2.09-2.34-.57-2.77-.75s-.79-.22-.86.15-2.14-.79-2.14-.79l-2.79.45Z"/><path class="d" d="M355.35,22c-3.5,5-42.62,48.72-53.54,58.34"/><path class="d" d="M355.35,23.19c-5.51,7.13-41.77,47.58-52.75,57.44"/><path class="d" d="M355.37,26.7C346.67,37.16,316,71.24,305,81.4"/><path class="d" d="M355.37,27.79c-9.18,10.95-38.52,43.53-49.56,53.87"/><path class="d" d="M355.38,31C345.18,43,319.17,71.81,308.1,82.4"/><path class="d" d="M355.39,32.1C345,44.26,319.92,72,308.86,82.65"/><path class="d" d="M355.41,35.79c-11.09,12.52-33.75,37-44.72,47.52"/><path class="d" d="M355.41,36.89C344.34,49.45,322.66,73,311.68,83.67"/><path class="d" d="M355.43,40.71C343,54.51,323.11,75.82,313.88,84.47"/><path class="d" d="M355.43,41.84c-12.22,13.64-31.24,34.15-40.54,43"/><path class="d" d="M355.45,45.92c-13,14.28-30.64,33-38.17,39.79"/><path class="d" d="M355.45,47.08c-12.67,14-29.47,31.93-37.15,39"/><path class="d" d="M355.47,50.46c-13.21,14.37-29.25,31.26-35.25,36.33"/><path class="d" d="M355.47,51.64c-12.73,13.92-27.93,30-34.21,35.54"/><path class="d" d="M355.49,55.18c-12.57,13.56-27,28.57-32.14,32.78"/><path class="d" d="M355.49,56.39C343,69.91,329.27,84.31,324.32,88.33"/><path class="d" d="M355.51,60c-11.61,12.47-23.76,25.09-28.77,29.31"/><path class="d" d="M355.51,61.18c-11.08,12-22.54,23.95-27.74,28.5"/><path class="d" d="M355.53,64.66c-10.35,11.06-20.65,21.7-25.5,25.92"/><path class="d" d="M355.54,65.9C345.7,76.46,336,86.56,331,91"/><path class="d" d="M355.55,70c-9.51,10.05-18.29,19-22,22"/><path class="d" d="M355.56,71.28c-8.89,9.45-17.08,17.84-21,21.15"/><path class="d" d="M355.57,75c-7,7.44-13.67,14.27-18.16,18.54"/><path class="d" d="M355.58,76.29c-6.61,7-12.83,13.47-17.2,17.67"/><path class="d" d="M355.6,80.12c-5.3,5.61-10.38,10.87-14.48,15"/><path class="d" d="M355.6,81.38c-4.93,5.24-9.65,10.16-13.55,14.07"/><path class="d" d="M355.62,85.65c-3.83,4-7.48,7.8-10.65,11"/><path class="d" d="M355.63,86.92c-3.47,3.67-6.79,7.12-9.72,10.09"/><path class="d" d="M261.89,31.25S252.57,60,248.53,67.43"/><path class="d" d="M261.93,32.51s-9,27.66-13,35"/><path class="d" d="M262.06,34.62s-8.49,25.72-12.48,33"/><path class="d" d="M262.2,35.56S254,60.28,250,67.66"/><path class="d" d="M262.16,37.76s-7.46,22.81-11.42,30"/><path class="d" d="M262.31,38.68s-7.14,21.84-11.12,29.16"/><path class="d" d="M262.3,40.74s-6.65,20-10.55,27.18"/><path class="d" d="M262.38,41.85s-6.19,19-10.12,26.15"/><path class="d" d="M262.43,43.64S257,61,253.13,68.14"/><path class="d" d="M262.54,44.7s-5,16.45-8.86,23.52"/><path class="d" d="M262.56,47.89c-1.82,5.48-5.26,15.39-8,20.47"/><path class="d" d="M262.62,49.22c-1.72,5.3-4.84,14.36-7.47,19.23"/><path class="d" d="M262.74,51.86c-1.89,5.5-4.53,12.65-6.69,16.73"/><path class="d" d="M262.81,53.24a117.69,117.69,0,0,1-6.2,15.44"/><path class="d" d="M262.9,55.18a118.72,118.72,0,0,1-5.58,13.6"/><path class="d" d="M263,56.58a100.07,100.07,0,0,1-5.09,12.29"/><path class="d" d="M263.06,58.53A98.51,98.51,0,0,1,258.63,69"/><path class="d" d="M263.13,59.92a82.29,82.29,0,0,1-3.94,9.15"/><path class="d" d="M263.21,61.55a81.73,81.73,0,0,1-3.34,7.62"/><path class="d" d="M263.27,62.91a67.91,67.91,0,0,1-2.84,6.35"/><path class="d" d="M263.34,64.27c-.79,1.91-1.57,3.66-2.31,5.08"/><path class="d" d="M263.4,65.57c-.61,1.43-1.22,2.74-1.81,3.86"/><polygon class="e" points="256.03 42.55 256.03 44.18 249.74 45.71 249.87 40.81 256.03 42.55"/><polygon class="f" points="262.92 60.23 256.9 61.76 256.9 63.69 263.22 64.83 262.92 60.23"/><polygon class="e" points="250.83 65.33 256.9 63.69 256.9 61.76 250.62 60.53 250.83 65.33"/><path class="e" d="M208.63,61.77A7.67,7.67,0,0,0,211.22,63c1.49.39,7.34,1.8,8.75,2s9.63,1.82,11.09,2.05,10.74,2,14.82,2.86,11.42,2.9,13.85,3.59,12.6,4.26,16.9,5.9,34.65,14.22,45.28,20.24S349,112.57,349,112.57l28.42,15,8.77,4.36V113.57c-11.74-5-27.88-11.78-36.76-15.16C334.41,92.69,321,87.2,321,87.2s-13.48-5.19-16.26-6-13.41-4.13-13.41-4.13-12.58-3.86-15-4.34-9.77-2.5-11.54-2.81-9.7-1.67-11.54-1.84-9.08-1.42-10.58-1.69-10-1.51-11.6-1.76-10.9-1.44-14-2.23-3.31-1.71-3.46-2.07-.36-1.18-.36-1.18l-1.63,1-1.9.14Z"/><polygon class="e" points="262.25 31.07 262.36 30.84 262.97 30.96 265.33 69.9 264.93 70 263.94 69.91 263.6 68.54 262.46 41.77 262.25 31.07"/><path class="g" d="M214.8,63.43s-5-.53-6.05-1.8a1.49,1.49,0,0,1,.18-2.42,12.65,12.65,0,0,1,2.52-1.43c.8-.34,3.7-1.23,4.69-1.49s5.42-1.16,8.17-1.59,6.29-.69,7.86-.86,4.56-.29,4.56-.29l2.24-.11s-8.35.77-11,1.22a71.25,71.25,0,0,0-8.9,1.9c-1.62.62-3.65,1.21-4.66,2.1s-.89,1.58-.7,2a6.18,6.18,0,0,0,3.07,1.7c1.43.36-1.72-.24-2.63-.85s-.93-1.22-.93-1.22-.1,1.37,2.24,2.12a16.94,16.94,0,0,0,2.56.74s-5.33-.63-6.49-1.55-.84-1.5-.84-1.5a1.7,1.7,0,0,0,.8,1.77c1.07.74.8.68,3.31,1.58"/><polygon class="f" points="261.57 31.03 262.36 30.84 264.28 69.68 263 69.5 261.57 31.03"/><path class="f" d="M240.8,53.33s-13.45.27-22.56,2.35-11.35,4-9.59,6.24,22.91,5.05,30.66,7,25.21,3,75.89,28.18c31.25,15.53,56.35,28.23,71,35.68v-1.91c-7.8-3.86-16.25-8.11-18.06-9.23-3.54-2.19-29.4-14.75-29.4-14.75s-17.29-8.27-20.7-9.94-28.83-13.37-39.82-17.37-16.55-5.89-20.8-7.09-13.18-3.15-17.18-3.93-20.44-3.46-25-4.65-5.43-1.08-6.67-2.53,1.26-2.86,2.8-3.46a44.52,44.52,0,0,1,9.66-2.58,154,154,0,0,1,19.73-2"/><path class="e" d="M359.33,134.07l.51-.23s-1.09-27.17-1.15-41.43-.19-47.09-.19-53.74.19-18.16.19-18.16l-1.58.11-.74,4.7-.54,33.5.32,61.28-.22,11.56,1,2.76Z"/><path class="f" d="M240.8,53.33s-18.24,1.32-24.51,4.34-.22,4.86,7.46,5.81,26.91,4.16,36.77,5.54,32.45,8.36,46.9,12.89c10.77,3.37,55.53,21.26,78.8,30.74v1.7c-6.14-2.75-12.81-5.71-16.72-7.34-8.67-3.62-25-10-29.69-12.13S321,87.93,315,85.31s-19.21-6.78-23.56-8-6.81-2.38-20-5.62-18.87-3.11-25.83-4.57-21-2.87-28-4.46-3.22-4.24-2.78-4.5,6-3.78,25.95-4.84"/><path class="f" d="M356.95,101.91c0-1.46-.07-2.8-.11-4-.38-10.7.59-40.36.59-40.36l-.32-37-2.22,0s-.73,34.47-1,44.63c-.16,6-.62,21.8-1.07,35Zm.19,31.72s0-8.5,0-17.7l-4.78-2.38c-.12,3-.24,5.24-.33,6.42-.49,6.38-.54,13.22-.54,13.22l4.27,1.31Z"/><path class="f" d="M214.18,57.71s-4.05,1-3.59,3,3.35,2.17,7.16,3,9.52,1.85,14.47,2.62,19.12,2.9,31.08,5.55,28.64,8.46,41,13.21,51.82,22.21,51.82,22.21l30.15,13.94v-1.57c-9.34-4.19-21.17-9.51-28.66-12.94-13.94-6.38-28.75-12.48-39.34-16.86s-33-13.08-45.23-16.21-25-5.38-34.2-6.84-15.75-2.3-20-3.13-6.24-1.09-7.4-2a1.53,1.53,0,0,1-.2-2.35c.3-.28.43-.66,3-1.61"/><path class="f" d="M335,139.79,333.55,19l-2,.27s-1.08,86.35-1.57,96.56-1.08,23.94-1.08,23.94Z"/><path class="e" d="M335.36,19.24,333.49,19,333.31,25l.13,51.63.38,56.2,1.14,7h1.89l1.16-1.49s-1.3-19-1.19-28-.43-28.58-.7-34.69c-.83-18.82,0-37.6-.76-56.33"/><polygon class="f" points="355.03 42.21 345.82 45.4 345.82 48.48 354.92 51.61 355.03 42.21"/><path class="e" d="M251.28,70.62s-.13-6.73-.65-12.51-1.07-27.41-1.07-27.41l-.82,0-.18.6.22,8.39.53,13.72.92,17.51Z"/><polygon class="e" points="335.42 41.99 345.82 45.4 345.82 48.48 334.85 51.59 335.42 41.99"/><path class="e" d="M251.57,71.48s.89,6.54,1.35,10.78a27.81,27.81,0,0,0,.84,5.24l8.43-.86,2.35.16L264,74.95l2,.68s.24,5.58.51,9.58l.38,5.59L251.66,92l-.9-2.55-.65-12.78,0-5.49Z"/><polygon class="f" points="262.19 86.64 262.16 86.64 262.59 74.49 264.33 75.08 264.7 87.11 262.19 86.64"/><path class="f" d="M248.75,30.68h-.45s.93,25.68,1.07,33-.05,17.67-.19,20-.19,4.15-.19,4.15h-.16V92h2.83V88h-.25s-.86-19.61-1.15-23.8-1.53-29.69-1.51-33.53"/><polygon class="f" points="343.38 87.25 345.43 85.73 354.19 82.33 354.35 90.49 345.43 88.65 343.38 87.25"/><polygon class="e" points="336.08 83.68 345.43 85.73 345.43 88.65 335.49 93.62 336.08 83.68"/><polygon class="f" points="356.13 115.87 357.12 115.93 359.24 116.98 360.28 118.76 359.31 119.16 357.13 118.06 356.13 115.87"/><path class="h" d="M251,65.84s1.84,3.77,2.79,5.54M251,64.89s2.24,4.55,3.19,6.31m-3.27-7.52s3,5.94,3.95,7.71m-4-8.49s3.51,6.86,4.47,8.63m-4.5-10s4,7.84,5.29,10.29M250.6,58.73l3.12,6.07c1.43,2.78,3,5.8,3.73,7.2m-6.82-11.48s4.41,8.55,5.86,11.3M250.6,58.73l3.12,6.07c1.43,2.78,3,5.8,3.73,7.2m-7-14.69L254,64.11c1.66,3.21,3.47,6.7,4.23,8.12m-7.91-16.05s2,3.9,3.91,7.62c1.78,3.44,3.72,7.16,4.48,8.58m-8.34-17.2,4.1,7.89c2,3.91,4.26,8.16,5,9.55M250.13,54s2.44,4.6,4.67,8.85,4.51,8.61,5.23,9.93m-9.78-20.07,4.8,9.23c2.39,4.59,5,9.56,5.83,11.1M250,51.6l5.43,10.22c2.51,4.72,5.23,9.85,6.09,11.4M250,50l5.69,10.69c2.83,5.32,5.92,11.09,6.87,12.82M250,49.1s2.84,5.33,5.95,11.14c3,5.64,6.32,11.79,7.24,13.46M250,47.82s3.06,5.69,6.41,11.91c3.19,5.92,6.67,12.35,7.74,14.29M249.88,46.83s3.37,6.2,6.83,12.6c3.32,6.13,6.95,12.82,8,14.76m-15.09-29,7.22,13.3c3.6,6.62,7.53,13.85,8.74,16M250.09,45.17s3.49,6.41,7.32,13.43c3.58,6.56,7.5,13.72,8.8,16m-16.46-31s4,7.18,8.07,14.5c3.74,6.76,7.83,14.16,9.29,16.76M249.72,42.75s3.94,7,8.1,14.52c3.94,7.1,8.32,15,10,17.87m-18-33.71c0-.09,3.83,6.76,8.21,14.6,4.21,7.53,9,16.1,11,19.49M249.78,40.23l8.54,15.28c4.4,7.87,9.4,16.79,11.37,20.28m-20-37.09s4.15,7.39,9,15.9c4.66,8.27,10,17.74,12.23,21.6M249.66,37.61s4.25,7.61,9.19,16.4c4.79,8.52,10.32,18.31,12.72,22.43M249.52,36.09s4.34,7.53,9.44,16.46S270,72,272.58,76.82M249.51,35.25s4.25,7.44,9.37,16.45,11.36,20,14.38,25.41M249.38,33.18l10.83,19C266,62.29,272.67,74,275,78M249.47,32.51s5.13,9,11.05,19.43,12.78,22.38,15.16,26.4"/><path class="h" d="M262.94,31.77s23.76,41.12,26.17,44.9"/><path class="h" d="M262.8,32.57s23.35,39.93,25.64,44"/><path class="h" d="M262.92,35S282.64,68.43,287,76.18"/><path class="h" d="M262.94,36c.66,1.11,20.13,33.62,23.4,40"/><path class="h" d="M263.06,37.76s19.54,33.49,22.48,38.12"/><path class="h" d="M263.11,39c.06.09,19.06,32.3,21.73,36.65"/><path class="h" d="M263.21,40.86c1.13,1.91,18.23,30.9,20.44,34.53"/><path class="h" d="M263.3,42.38C265,45.14,280.73,71.8,283,75.29"/><path class="h" d="M263.39,44.15c1.43,2.42,16.81,28.41,18.37,30.88"/><path class="h" d="M263.46,45.25c.55.93,16.6,28,17.66,29.68"/><path class="h" d="M263.53,46.53C265,49,279.21,73.2,280.16,74.68"/><path class="h" d="M263.58,47.51c3,5.18,15.06,25.62,15.93,27"/><path class="h" d="M263.67,49c2.06,3.5,14,23.84,14.94,25.26"/><path class="h" d="M263.73,50.07c2.44,4.15,13.42,22.8,14.31,24.18"/><path class="h" d="M263.82,51.75c2.6,4.42,12.3,20.92,13.16,22.26"/><path class="h" d="M263.88,52.77c2.55,4.33,11.7,19.89,12.56,21.23"/><path class="h" d="M264,54.63c1.74,2.94,10.51,17.8,11.4,19.2"/><path class="h" d="M264,55.54c2.2,3.8,9.8,16.88,10.65,18.21"/><path class="h" d="M264.13,57.29c1.6,2.73,7.6,12.95,9.27,15.7"/><path class="h" d="M264.18,58.29c1.84,3.14,6.94,11.83,8.6,14.56"/><path class="h" d="M264.25,59.7c1.59,2.71,6,10.17,7.65,12.95"/><path class="h" d="M264.29,60.56c1.58,2.69,5.43,9.25,7.06,12"/><path class="h" d="M264.37,62c1.38,2.35,4.56,7.77,6.11,10.35"/><path class="h" d="M264.46,63.87c1.05,1.79,3.43,5.84,4.83,8.17"/><path class="h" d="M264.37,62c1.38,2.35,4.56,7.77,6.11,10.35"/><path class="h" d="M264.52,64.88c.83,1.41,2.84,4.84,4.15,7"/><path class="h" d="M264.59,66.23c.8,1.37,2.24,3.84,3.22,5.46"/><path class="h" d="M264.63,67c.69,1.18,1.84,3.15,2.7,4.57"/><path class="h" d="M264.69,68.32c.49.83,1.2,2,1.82,3.08"/><path class="h" d="M264.74,69.33l1.13,1.92"/><polygon class="f" points="262.13 40.95 256.03 42.55 256.03 44.18 262.48 45.77 262.13 40.95"/><path class="d" d="M248.48,31.64S238.91,61.11,235,67.84"/><path class="d" d="M248.52,32.89s-9.16,28.22-13,35"/><path class="d" d="M248.64,35s-8.65,26.22-12.53,33"/><path class="d" d="M248.79,35.9s-8.44,25.48-12.31,32.21"/><path class="d" d="M248.75,38.08s-7.62,23.31-11.49,30"/><path class="d" d="M248.89,39s-7.39,22.6-11.27,29.33"/><path class="d" d="M248.88,41s-6.8,20.44-10.64,27.26"/><path class="d" d="M249,42.14s-6.38,19.57-10.25,26.3"/><path class="d" d="M249,43.9s-5.59,17.81-9.42,24.64"/><path class="d" d="M249.12,45s-5.15,17-9,23.74"/><path class="d" d="M249.13,48.12c-1.87,5.63-5.46,16-8.17,20.8"/><path class="d" d="M249.2,49.43c-1.78,5.47-5.05,15-7.73,19.63"/><path class="d" d="M249.32,52c-2,5.71-4.74,13.22-6.93,17.13"/><path class="d" d="M249.39,53.4c-1.83,5.38-4.35,12.2-6.49,15.91"/><path class="d" d="M249.48,55.33a107.73,107.73,0,0,1-5.87,14.1"/><path class="d" d="M249.55,56.72a90.12,90.12,0,0,1-5.43,12.87"/><path class="d" d="M249.64,58.65a88.27,88.27,0,0,1-4.75,11"/><path class="d" d="M249.7,60a73.16,73.16,0,0,1-4.31,9.79"/><path class="d" d="M249.78,61.63A71.86,71.86,0,0,1,246.06,70"/><path class="d" d="M249.84,63a59,59,0,0,1-3.27,7.12"/><path class="d" d="M249.91,64.33a57.42,57.42,0,0,1-2.74,5.88"/><path class="d" d="M250,65.62a46.58,46.58,0,0,1-2.29,4.73"/><path class="d" d="M332.21,88.72c-3.76,4-7.34,7.69-10.46,10.85M332.2,87.41c-4.12,4.33-8,8.37-11.4,11.75M332.19,83C327,88.58,322,93.79,317.89,97.86m14.29-16.13c-5.6,5.92-11,11.47-15.23,15.71M332.16,77.8c-6.92,7.36-13.43,14.09-17.93,18.41m17.92-19.7c-7.34,7.77-14.27,14.89-18.88,19.26m18.87-23.12c-9.22,9.8-17.7,18.48-21.66,21.82m21.65-23.11c-9.81,10.38-18.88,19.6-22.67,22.64m22.65-26.87c-10,10.79-20,21.11-25.08,25.7m25.07-27c-10.52,11.24-21,22.07-26,26.5m26-30.08c-11.16,12.05-22.71,24.13-28.19,29M332.09,61c-11.63,12.49-23.78,25.13-29.16,29.77m29.14-33.44c-12.29,13.33-25.82,27.5-31.38,32.27M332.07,56.1c-12.34,13.31-26.42,28-32.27,33m32.26-36.68c-12.5,13.67-27.31,29.38-34.24,35.7M332,51.25c-12.89,14-28.39,30.37-35.21,36.45M332,47.78C319.59,61.5,303.27,79,295,86.83M332,46.59c-12.74,14-29.78,32.09-38.05,39.81m38-44c-12,13.43-30.48,33.33-40.41,43M332,41.23C319.79,54.79,300.58,75.4,290.62,85M332,37.31C321.06,49.7,300,72.55,288.42,84M332,36.17c-10.94,12.35-32.84,36-44.55,47.47M332,32.38c-10.27,12-34.37,38.7-46.35,50.53M332,31.27c-10.05,11.78-35,39.47-47.09,51.34m47.08-54.67c-9,10.75-36.93,41.78-49.3,53.8m49.3-54.92c-8.53,10.25-37.6,42.6-50,54.63m50-58.23c-5.39,7-39.38,44.94-52.39,57.34M331.92,22c-3.42,4.88-39.9,45.7-53.14,58.24"/><path class="h" d="M334.71,22.53s30.61,30.53,51.51,49.77"/><path class="h" d="M334.71,24.18s30.61,30.53,51.51,49.77"/><path class="h" d="M334.71,26.87s30.61,30.53,51.51,49.77"/><path class="h" d="M334.71,28.52s30.61,30.53,51.51,49.77"/><path class="h" d="M334.72,30.86c.31.31,30.7,30.62,51.51,49.76"/><path class="h" d="M334.73,32.52c.68.68,30.82,30.73,51.49,49.75"/><path class="h" d="M334.75,35c1.19,1.19,31,30.88,51.48,49.73"/><path class="h" d="M334.76,36.69c1.32,1.31,31,30.91,51.47,49.72"/><path class="h" d="M334.78,39.35c1.51,1.5,31.08,31,51.45,49.7"/><path class="h" d="M334.79,41c1.62,1.62,31.11,31,51.44,49.69"/><path class="h" d="M334.81,43.86c1.82,1.82,31.17,31,51.42,49.67"/><path class="h" d="M334.82,45.52c1.94,1.93,31.2,31.07,51.4,49.66"/><path class="h" d="M334.84,48.64c2.15,2.15,31.26,31.12,51.38,49.64"/><path class="h" d="M334.85,50.3c2.27,2.26,31.29,31.15,51.37,49.63"/><path class="h" d="M334.87,53.61c2.41,2.4,31.33,31.18,51.35,49.6"/><path class="h" d="M334.88,55.27c2.48,2.47,31.34,31.19,51.34,49.59"/><path class="h" d="M334.91,58.48c2.61,2.6,31.37,31.22,51.32,49.57"/><path class="h" d="M334.92,60.14c2.67,2.66,31.39,31.23,51.31,49.56"/><path class="h" d="M334.94,63.13c2.79,2.78,31.42,31.26,51.28,49.54"/><path class="h" d="M334.95,64.79c2.86,2.85,31.43,31.27,51.27,49.53"/><path class="h" d="M335,67c2.94,2.93,31.45,31.29,51.26,49.51"/><path class="h" d="M335,68.61c3,3,31.47,31.3,51.25,49.5"/><path class="h" d="M335,72.13c3.16,3.15,31.5,31.33,51.22,49.48"/><path class="h" d="M335,73.79c3.2,3.18,31.51,31.34,51.21,49.47"/><path class="h" d="M335,77.41c3.33,3.31,31.54,31.36,51.19,49.44"/><path class="h" d="M335,79.07c3.21,3.2,28.78,28.62,48.15,46.63"/><path class="h" d="M335.07,82.52c3,3,23.74,23.6,41.93,40.8"/><path class="h" d="M335.08,84.18c2.85,2.84,21.59,21.47,39,38"/><path class="h" d="M335.11,89c2.48,2.47,16,15.94,30.57,29.94"/><path class="h" d="M335.13,90.69c2.35,2.34,14.31,14.23,27.72,27.2"/><path class="h" d="M335.16,95.39c4.81,4.76,11.72,11.55,19.23,18.83"/><path class="h" d="M335.17,97c4.15,4.1,9.85,9.71,16.15,15.84"/><path class="h" d="M357.57,96.68c3.79,3.52,8,7.65,12.93,12.18M357.57,95.08c4.57,4.25,9.83,9.35,15.94,14.94M357.57,90.56c5.12,4.79,14.63,13.65,25,23.08M357.57,89c5.61,5.25,16.42,15.32,27.83,25.69M357.57,84.28c5.76,5.38,17,16,28.65,26.68M357.57,82.67c5.66,5.3,17,15.9,28.65,26.49M357.57,79.34c5.88,5.5,17,15.89,28.65,26.44m-28.65-28c5.9,5.52,17.05,15.9,28.65,26.44M357.57,74.24c5.94,5.55,17.08,15.93,28.65,26.43m-28.65-28c6,5.57,17.1,15.94,28.65,26.43M357.57,69.23c6,5.61,17.12,16,28.65,26.43m-28.65-28c6,5.63,17.14,16,28.65,26.43M357.57,65.54c6,5.65,17.15,16,28.65,26.43m-28.65-28c6.06,5.67,17.17,16,28.65,26.43M357.57,61c6.1,5.7,17.19,16,28.65,26.42m-28.65-28c6.11,5.72,17.2,16,28.65,26.42M357.57,56.34c6.15,5.75,17.23,16.05,28.65,26.42m-28.65-28c6.17,5.77,17.24,16.06,28.65,26.42M357.57,51.54c6.2,5.8,17.27,16.08,28.65,26.42m-28.65-28c6.22,5.81,17.28,16.09,28.65,26.41M357.57,46.92c6.25,5.84,17.3,16.11,28.65,26.41m-28.65-28c6.27,5.86,17.31,16.12,28.65,26.41M357.57,42.56c6.3,5.88,17.33,16.14,28.65,26.41M357.57,41c6.31,5.9,17.34,16.15,28.65,26.41m-28.65-29c6.34,5.93,17.36,16.17,28.65,26.4m-28.65-28c6.36,5.94,17.37,16.18,28.65,26.4M357.57,34.36c6.38,6,17.39,16.19,28.65,26.4m-28.65-28c6.4,6,17.4,16.2,28.65,26.4M357.57,30.49c6.42,6,17.42,16.22,28.65,26.4m-28.65-28c6.44,6,17.43,16.22,28.65,26.4m-28.65-29C364,32.3,375,42.5,386.22,52.66m-28.65-28c6.48,6,17.46,16.25,28.65,26.39"/><rect class="i" x="245.38" y="70.19" width="1.46" height="7.7"/><rect class="i" x="240.91" y="69.09" width="1.27" height="6.71"/><polygon class="f" points="234.89 67.84 236.89 68.11 236.89 79.27 234.89 77.63 234.89 67.84"/><polygon class="f" points="232.63 67.35 234.3 67.58 234.16 76.85 232.77 76.03 232.63 67.35"/><polygon class="f" points="230.44 67 231.73 67.18 231.53 75.12 230.44 74.42 230.44 67"/><polygon class="f" points="228.65 66.62 229.76 66.77 229.59 73.57 228.65 72.97 228.65 66.62"/><polygon class="f" points="226.91 66.35 227.88 66.48 227.73 72.44 226.91 71.92 226.91 66.35"/><rect class="i" x="243.11" y="69.57" width="1.33" height="7"/><rect class="i" x="238.6" y="68.65" width="1.25" height="6.57"/><rect class="i" x="236.66" y="68.25" width="1.25" height="6.57"/><polygon class="f" points="225.18 66.08 226.01 66.19 225.88 71.32 225.18 70.87 225.18 66.08"/><polygon class="f" points="223.47 65.76 224.17 65.85 224.06 70.11 223.47 69.74 223.47 65.76"/><polygon class="f" points="221.69 65.46 222.31 65.54 222.21 69.31 221.69 68.98 221.69 65.46"/><polygon class="f" points="220.6 65.23 221.15 65.31 221.06 68.67 220.6 68.38 220.6 65.23"/><polygon class="f" points="219.46 64.99 219.93 65.05 219.86 67.94 219.46 67.68 219.46 64.99"/><polygon class="f" points="218.6 64.76 219.01 64.81 218.94 67.29 218.6 67.07 218.6 64.76"/><polygon class="f" points="217.75 64.64 218.09 64.68 218.04 66.81 217.75 66.62 217.75 64.64"/></svg>